<?xml version="1.0" encoding="UTF-8" standalone="no" ?>
<!DOCTYPE svg PUBLIC "-//W3C//DTD SVG 1.1//EN" "http://www.w3.org/Graphics/SVG/1.1/DTD/svg11.dtd">
<svg xmlns="http://www.w3.org/2000/svg" xmlns:xlink="http://www.w3.org/1999/xlink" version="1.1" width="20" height="20" viewBox="0 0 20 20" xml:space="preserve">
<desc>Created with Fabric.js 5.3.0</desc>
<defs>
</defs>
<g transform="matrix(1.1380590533 0 0 1.1380590533 10 10)" id="_nYhK7RsOh7B2X8nOdJ2u"  >
<path style="stroke: rgb(35,86,27); stroke-width: 0; stroke-dasharray: none; stroke-linecap: butt; stroke-dashoffset: 0; stroke-linejoin: miter; stroke-miterlimit: 4; fill: rgb(212,174,255); fill-rule: nonzero; opacity: 1;"  transform=" translate(0.0000046529, -0.0000039031)" d="M 4.61354 -7.81616 C 4.93714 -7.81616 2.8968700000000007 -5.66863 2.8968700000000007 -5.66863 L 3.2067100000000006 -3.1418700000000004 L 5.65732 -2.82866 C 5.65732 -2.82866 7.843490000000001 -5.42159 7.843490000000001 -4.58621 C 7.843490000000001 -2.8032800000000004 6.396470000000001 -1.3562600000000002 4.61354 -1.3562600000000002 C 4.38656 -1.3562600000000002 4.165030000000001 -1.3797100000000002 3.9512400000000003 -1.4243200000000003 C 3.6070400000000005 -1.4961400000000002 -2.1696 4.56049 -5.124649999999999 7.56767 L -5.124649999999999 7.56767 C -5.279979999999999 7.72574 -5.492029999999999 7.8152 -5.7136499999999995 7.81616 C -5.935269999999999 7.81712 -6.148079999999999 7.7295 -6.304779999999999 7.57278 L -7.575719999999999 6.30184 L -7.575719999999999 6.30184 C -7.750479999999999 6.1270500000000006 -7.847039999999999 5.88896 -7.843399999999999 5.64182 C -7.839759999999999 5.39468 -7.736229999999999 5.15954 -7.556399999999999 4.98997 C -4.518379999999999 2.1253099999999994 1.5754300000000017 -3.361510000000001 1.4592500000000017 -3.8884800000000013 C 1.4097100000000018 -4.113200000000001 1.3835900000000017 -4.346670000000001 1.3835900000000017 -4.586210000000001 C 1.3835900000000017 -6.369140000000002 2.830610000000002 -7.816160000000002 4.613540000000002 -7.816160000000002 z" stroke-linecap="round" />
</g>
</svg>