<?xml version="1.0" encoding="UTF-8" standalone="no" ?>
<!DOCTYPE svg PUBLIC "-//W3C//DTD SVG 1.1//EN" "http://www.w3.org/Graphics/SVG/1.1/DTD/svg11.dtd">
<svg xmlns="http://www.w3.org/2000/svg" xmlns:xlink="http://www.w3.org/1999/xlink" version="1.1" width="20" height="20" viewBox="0 0 500 500" xml:space="preserve">
<desc>Created with Fabric.js 5.3.0</desc>
<defs>
</defs>
<g transform="matrix(1.1305131317 0 0 1.1305131317 249.9999977897 250)" id="v940sY9cAgUc5Pszd7oeI"  >
<path style="stroke: rgb(0,0,0); stroke-width: 0; stroke-dasharray: none; stroke-linecap: butt; stroke-dashoffset: 0; stroke-linejoin: miter; stroke-miterlimit: 4; fill: rgb(0,255,90); fill-rule: nonzero; opacity: 1;" vector-effect="non-scaling-stroke"  transform=" translate(0, 0)" d="M 22.60519 -173.84276 L 76.42618999999999 -173.84276 L -22.604870000000005 173.84277000000003 L -76.42618 173.84277000000003 z" stroke-linecap="round" />
</g>
<g transform="matrix(1.1305131317 0 0 1.1305131317 82.6641926168 250)" id="118ibK1bhSUpxts4fVbty"  >
<path style="stroke: rgb(0,0,0); stroke-width: 0; stroke-dasharray: none; stroke-linecap: butt; stroke-dashoffset: 0; stroke-linejoin: miter; stroke-miterlimit: 4; fill: rgb(0,255,90); fill-rule: nonzero; opacity: 1;" vector-effect="non-scaling-stroke"  transform=" translate(0, 0)" d="M -70.59138 -26.91066 L 70.59139 -95.66203999999999 L 70.59139 -41.84072999999999 L -16.77006 7.105427357601002e-15 L 70.59139 41.84073000000001 L 70.59139 95.66204 L -70.59138 26.910660000000007 z" stroke-linecap="round" />
</g>
<g transform="matrix(-1.1305131317 0 0 1.1305131317 417.3358051729 249.9999955208)" id="tcT2rMrjBO3XOvIWk-93v"  >
<path style="stroke: rgb(0,0,0); stroke-width: 0; stroke-dasharray: none; stroke-linecap: butt; stroke-dashoffset: 0; stroke-linejoin: miter; stroke-miterlimit: 4; fill: rgb(0,255,90); fill-rule: nonzero; opacity: 1;" vector-effect="non-scaling-stroke"  transform=" translate(0, 0)" d="M -70.59138 -26.91066 L 70.59139 -95.66203999999999 L 70.59139 -41.84072999999999 L -16.77006 7.105427357601002e-15 L 70.59139 41.84073000000001 L 70.59139 95.66204 L -70.59138 26.910660000000007 z" stroke-linecap="round" />
</g>
</svg>