<?xml version="1.0" encoding="UTF-8" standalone="no" ?>
<!DOCTYPE svg PUBLIC "-//W3C//DTD SVG 1.1//EN" "http://www.w3.org/Graphics/SVG/1.1/DTD/svg11.dtd">
<svg xmlns="http://www.w3.org/2000/svg" xmlns:xlink="http://www.w3.org/1999/xlink" version="1.1" width="20" height="20" viewBox="0 0 20 20" xml:space="preserve">
<desc>Created with Fabric.js 5.3.0</desc>
<defs>
</defs>
<g transform="matrix(1 0 0 1 1865.7142857143 -35.2538362272)" id="JzvKqhhoep8u2xQTlgvnS"  >
<path style="stroke: rgb(163,136,149); stroke-width: 0; stroke-dasharray: none; stroke-linecap: butt; stroke-dashoffset: 0; stroke-linejoin: miter; stroke-miterlimit: 4; fill: rgb(0,0,0); fill-rule: nonzero; opacity: 1;"  transform=" translate(-137.1900834895, -137.1900834895)" d="M 137.19008 0 C 212.91899999999998 0 274.38016 61.46116 274.38016 137.19008 C 274.38016 212.91899999999998 212.91899999999998 274.38016 137.19008 274.38016 C 61.46115999999999 274.38016 0 212.91899999999998 0 137.19008 C 0 61.46115999999999 61.46116 0 137.19008 0 z" stroke-linecap="round" />
</g>
<g transform="matrix(1.8013731456 0 0 1.8013731456 1865.7142857143 298.0123522906)" id="F83irH2nh4FO-d2EEIc_m"  >
<path style="stroke: rgb(163,136,149); stroke-width: 0; stroke-dasharray: none; stroke-linecap: butt; stroke-dashoffset: 0; stroke-linejoin: miter; stroke-miterlimit: 4; fill: rgb(0,0,0); fill-rule: nonzero; opacity: 1;"  transform=" translate(0, 0)" d="M -43.94085 -93.29662 C -30.14414 -97.96314000000001 0 -18.016760000000005 0 -18.016760000000005 C 0 -18.016760000000005 30.69218 -97.86840000000001 44.70758 -93.03474 C 98.50799 -74.47994 137.19008 -23.38158 137.19008 36.696560000000005 C 137.19008 112.42548000000001 -137.19008 112.42548000000001 -137.19008 36.696560000000005 C -137.19008 -23.666589999999992 -98.14008999999999 -74.96455999999999 -43.94085 -93.29660999999999 z" stroke-linecap="round" />
</g>
<g transform="matrix(0.387255887 0 0 -0.3427043248 1865.7142857143 185)" id="DaZHkRwkXjAyWPTC-FaiC"  >
<path style="stroke: rgb(181,132,137); stroke-width: 0; stroke-dasharray: none; stroke-linecap: butt; stroke-dashoffset: 0; stroke-linejoin: miter; stroke-miterlimit: 4; fill: rgb(0,0,0); fill-rule: nonzero; opacity: 1;"  transform=" translate(0, 0)" d="M -71.42857 39.03733 L 0 -136.04071 L 71.42857 39.03733 L 0 136.04070000000002 z" stroke-linecap="round" />
</g>
<g transform="matrix(0.0816326244 0 0 0.0816326244 10 10)" id="CnPma56ea4C6-EM92y7kc"  >
<radialGradient id="SVGID_5" gradientUnits="userSpaceOnUse" gradientTransform="matrix(1 0 0 1 -121.75 -121.75)"  cx="41.86266489416093" cy="35.47141834543409" r="252.61420678193448" fx="41.86266489416093" fy="35.47141834543409">
<stop offset="0%" style="stop-color:rgb(54,41,255);stop-opacity: 1"/>
<stop offset="100%" style="stop-color:rgb(180,44,255);stop-opacity: 1"/>
</radialGradient>
<path style="stroke: rgb(227,179,111); stroke-width: 0; stroke-dasharray: none; stroke-linecap: butt; stroke-dashoffset: 0; stroke-linejoin: miter; stroke-miterlimit: 4; fill: url(#SVGID_5); fill-rule: nonzero; opacity: 1;" vector-effect="non-scaling-stroke"  transform=" translate(0, 0)" d="M 0 -121.75325 C 67.20779 -121.75325 121.75325 -67.20779999999999 121.75325 0 C 121.75325 67.20779 67.20779999999999 121.75325 0 121.75325 C -67.20779 121.75325 -121.75325 67.20779999999999 -121.75325 0 C -121.75325 -67.20779 -67.20779999999999 -121.75325 0 -121.75325 z" stroke-linecap="round" />
</g>
</svg>