<?xml version="1.0" encoding="UTF-8" standalone="no" ?>
<!DOCTYPE svg PUBLIC "-//W3C//DTD SVG 1.1//EN" "http://www.w3.org/Graphics/SVG/1.1/DTD/svg11.dtd">
<svg xmlns="http://www.w3.org/2000/svg" xmlns:xlink="http://www.w3.org/1999/xlink" version="1.1" width="20" height="20" viewBox="0 0 500 500" xml:space="preserve">
<desc>Created with Fabric.js 5.3.0</desc>
<defs>
</defs>
<g transform="matrix(1 0 0 1 250 247.6047025158)" id="k6G1xftRqnaYeiVB-xxYf"  >
<path style="stroke: rgb(255,255,255); stroke-width: 0; stroke-dasharray: none; stroke-linecap: butt; stroke-dashoffset: 0; stroke-linejoin: miter; stroke-miterlimit: 4; fill: rgb(253,255,143); fill-rule: nonzero; opacity: 1;" vector-effect="non-scaling-stroke"  transform=" translate(0, 0)" d="M 8.59588 244.10238 C 3.736559999999999 248.57132000000001 -3.7365600000000008 248.57132000000001 -8.59588 244.10238 L -8.59588 244.10238 L -8.59588 244.10238 C -133.62025 129.12194 -218.15642 -23.170260000000013 -249.61240999999998 -190.08973999999998 L -249.61240999999998 -190.08973999999998 C -249.61240999999998 -190.08973999999998 -194.71079999999998 -196.72514999999999 -132.30769999999998 -211.06622999999996 C -69.90459999999999 -225.40731999999997 -0.000009999999974752427 -247.45407999999998 -0.000009999999974752427 -247.45407999999998 C -0.000009999999974752427 -247.45407999999998 69.90458000000002 -225.40731999999997 132.30768000000003 -211.06622999999996 C 194.71078000000003 -196.72513999999995 249.61239000000003 -190.08973999999995 249.61239000000003 -190.08973999999995 L 249.61239000000003 -190.08973999999995 L 249.61239000000003 -190.08973999999995 C 218.15640000000002 -23.170249999999953 133.62024000000002 129.12195000000003 8.595860000000044 244.10238000000004 z" stroke-linecap="round" />
</g>
</svg>