<?xml version="1.0" encoding="UTF-8" standalone="no" ?>
<!DOCTYPE svg PUBLIC "-//W3C//DTD SVG 1.1//EN" "http://www.w3.org/Graphics/SVG/1.1/DTD/svg11.dtd">
<svg xmlns="http://www.w3.org/2000/svg" xmlns:xlink="http://www.w3.org/1999/xlink" version="1.1" width="20" height="20" viewBox="0 0 20 20" xml:space="preserve">
<desc>Created with Fabric.js 5.3.0</desc>
<defs>
</defs>
<g transform="matrix(0.5571771588 0 0 0.5571771588 10.0293696874 2.4260790916)" id="5JnT8IW9xkrHkPUs7DxbH"  >
<path style="stroke: rgb(255,255,255); stroke-width: 0; stroke-dasharray: none; stroke-linecap: butt; stroke-dashoffset: 0; stroke-linejoin: miter; stroke-miterlimit: 4; fill: rgb(100,100,215); fill-rule: nonzero; opacity: 1;" vector-effect="non-scaling-stroke"  transform=" translate(0.00001, -0.000005)" d="M -3.87597 -2.23153 C -3.87597 -3.1397299999999997 -3.13973 -3.87596 -2.23154 -3.87596 L 2.2315300000000002 -3.87596 L 2.2315300000000002 -3.87596 C 3.13973 -3.87596 3.87596 -3.13972 3.87596 -2.2315300000000002 L 3.87596 3.8759699999999997 L -3.87598 3.8759699999999997 z" stroke-linecap="round" />
</g>
<g transform="matrix(0.5571771588 0 0 -0.5571771588 10.0293758207 17.5739209084)" id="xMfwsk6Py3giE_kB1Ho3q"  >
<path style="stroke: rgb(255,255,255); stroke-width: 0; stroke-dasharray: none; stroke-linecap: butt; stroke-dashoffset: 0; stroke-linejoin: miter; stroke-miterlimit: 4; fill: rgb(100,100,215); fill-rule: nonzero; opacity: 1;" vector-effect="non-scaling-stroke"  transform=" translate(0.00001, -0.000005)" d="M -3.87597 -2.23153 C -3.87597 -3.1397299999999997 -3.13973 -3.87596 -2.23154 -3.87596 L 2.2315300000000002 -3.87596 L 2.2315300000000002 -3.87596 C 3.13973 -3.87596 3.87596 -3.13972 3.87596 -2.2315300000000002 L 3.87596 3.8759699999999997 L -3.87598 3.8759699999999997 z" stroke-linecap="round" />
</g>
<g transform="matrix(-0.3939837473 -0.3939837473 0.3939837473 -0.3939837473 4.6738051847 15.3555689249)" id="0D67r6B1ovSoNeuuQ6pWJ"  >
<path style="stroke: rgb(255,255,255); stroke-width: 0; stroke-dasharray: none; stroke-linecap: butt; stroke-dashoffset: 0; stroke-linejoin: miter; stroke-miterlimit: 4; fill: rgb(100,100,215); fill-rule: nonzero; opacity: 1;" vector-effect="non-scaling-stroke"  transform=" translate(0.00001, -0.000005)" d="M -3.87597 -2.23153 C -3.87597 -3.1397299999999997 -3.13973 -3.87596 -2.23154 -3.87596 L 2.2315300000000002 -3.87596 L 2.2315300000000002 -3.87596 C 3.13973 -3.87596 3.87596 -3.13972 3.87596 -2.2315300000000002 L 3.87596 3.8759699999999997 L -3.87598 3.8759699999999997 z" stroke-linecap="round" />
</g>
<g transform="matrix(-0.3939837473 -0.3939837473 -0.3939837473 0.3939837473 15.3849484266 4.644424889)" id="Ml-eNd8rMnWS4GpqDE1CI"  >
<path style="stroke: rgb(255,255,255); stroke-width: 0; stroke-dasharray: none; stroke-linecap: butt; stroke-dashoffset: 0; stroke-linejoin: miter; stroke-miterlimit: 4; fill: rgb(100,100,215); fill-rule: nonzero; opacity: 1;" vector-effect="non-scaling-stroke"  transform=" translate(0.00001, -0.000005)" d="M -3.87597 -2.23153 C -3.87597 -3.1397299999999997 -3.13973 -3.87596 -2.23154 -3.87596 L 2.2315300000000002 -3.87596 L 2.2315300000000002 -3.87596 C 3.13973 -3.87596 3.87596 -3.13972 3.87596 -2.2315300000000002 L 3.87596 3.8759699999999997 L -3.87598 3.8759699999999997 z" stroke-linecap="round" />
</g>
<g transform="matrix(0 0.5571771588 -0.5571771588 0 17.5445475929 9.9999974949)" id="V3wRhOWnwYvt5iTL-E0d9"  >
<path style="stroke: rgb(255,255,255); stroke-width: 0; stroke-dasharray: none; stroke-linecap: butt; stroke-dashoffset: 0; stroke-linejoin: miter; stroke-miterlimit: 4; fill: rgb(100,100,215); fill-rule: nonzero; opacity: 1;" vector-effect="non-scaling-stroke"  transform=" translate(0.00001, -0.000005)" d="M -3.87597 -2.23153 C -3.87597 -3.1397299999999997 -3.13973 -3.87596 -2.23154 -3.87596 L 2.2315300000000002 -3.87596 L 2.2315300000000002 -3.87596 C 3.13973 -3.87596 3.87596 -3.13972 3.87596 -2.2315300000000002 L 3.87596 3.8759699999999997 L -3.87598 3.8759699999999997 z" stroke-linecap="round" />
</g>
<g transform="matrix(0 0.5571771588 0.5571771588 0 2.4554524071 9.9999974949)" id="tKEWOnYuVE6tsOEH0QlH7"  >
<path style="stroke: rgb(255,255,255); stroke-width: 0; stroke-dasharray: none; stroke-linecap: butt; stroke-dashoffset: 0; stroke-linejoin: miter; stroke-miterlimit: 4; fill: rgb(100,100,215); fill-rule: nonzero; opacity: 1;" vector-effect="non-scaling-stroke"  transform=" translate(0.00001, -0.000005)" d="M -3.87597 -2.23153 C -3.87597 -3.1397299999999997 -3.13973 -3.87596 -2.23154 -3.87596 L 2.2315300000000002 -3.87596 L 2.2315300000000002 -3.87596 C 3.13973 -3.87596 3.87596 -3.13972 3.87596 -2.2315300000000002 L 3.87596 3.8759699999999997 L -3.87598 3.8759699999999997 z" stroke-linecap="round" />
</g>
<g transform="matrix(-0.3939837473 0.3939837473 -0.3939837473 -0.3939837473 15.3849472508 15.3555681309)" id="j-todJXZh4aFXWZLZ2FOh"  >
<path style="stroke: rgb(255,255,255); stroke-width: 0; stroke-dasharray: none; stroke-linecap: butt; stroke-dashoffset: 0; stroke-linejoin: miter; stroke-miterlimit: 4; fill: rgb(100,100,215); fill-rule: nonzero; opacity: 1;" vector-effect="non-scaling-stroke"  transform=" translate(0.00001, -0.000005)" d="M -3.87597 -2.23153 C -3.87597 -3.1397299999999997 -3.13973 -3.87596 -2.23154 -3.87596 L 2.2315300000000002 -3.87596 L 2.2315300000000002 -3.87596 C 3.13973 -3.87596 3.87596 -3.13972 3.87596 -2.2315300000000002 L 3.87596 3.8759699999999997 L -3.87598 3.8759699999999997 z" stroke-linecap="round" />
</g>
<g transform="matrix(-0.3939837473 0.3939837473 0.3939837473 0.3939837473 4.6738032148 4.644424889)" id="Bi_Ma3toPuStJUTS3BG0a"  >
<path style="stroke: rgb(255,255,255); stroke-width: 0; stroke-dasharray: none; stroke-linecap: butt; stroke-dashoffset: 0; stroke-linejoin: miter; stroke-miterlimit: 4; fill: rgb(100,100,215); fill-rule: nonzero; opacity: 1;" vector-effect="non-scaling-stroke"  transform=" translate(0.00001, -0.000005)" d="M -3.87597 -2.23153 C -3.87597 -3.1397299999999997 -3.13973 -3.87596 -2.23154 -3.87596 L 2.2315300000000002 -3.87596 L 2.2315300000000002 -3.87596 C 3.13973 -3.87596 3.87596 -3.13972 3.87596 -2.2315300000000002 L 3.87596 3.8759699999999997 L -3.87598 3.8759699999999997 z" stroke-linecap="round" />
</g>
<g transform="matrix(1.2516340337 0 0 1.2516340337 10.0293758207 9.9999974949)" id="7Xk9wwNYqxrC1V7Qaw9pO"  >
<path style="stroke: rgb(100,100,215); stroke-width: 4; stroke-dasharray: none; stroke-linecap: butt; stroke-dashoffset: 0; stroke-linejoin: miter; stroke-miterlimit: 4; fill: none; fill-rule: nonzero; opacity: 1;" vector-effect="non-scaling-stroke"  transform=" translate(0, 0)" d="M 0 -3.87597 C 2.13953 -3.87597 3.87597 -2.13954 3.87597 0 C 3.87597 2.13953 2.13954 3.87597 0 3.87597 C -2.13953 3.87597 -3.87597 2.13954 -3.87597 0 C -3.87597 -2.13953 -2.13954 -3.87597 0 -3.87597 z" stroke-linecap="round" />
</g>
</svg>