<?xml version="1.0" encoding="UTF-8" standalone="no" ?>
<!DOCTYPE svg PUBLIC "-//W3C//DTD SVG 1.1//EN" "http://www.w3.org/Graphics/SVG/1.1/DTD/svg11.dtd">
<svg xmlns="http://www.w3.org/2000/svg" xmlns:xlink="http://www.w3.org/1999/xlink" version="1.1" width="200" height="200" viewBox="0 0 200 200" xml:space="preserve">
<desc>Created with Fabric.js 5.3.0</desc>
<defs>
</defs>
<g transform="matrix(-1 0 0 1 99.9353990518 99.9998356671)" id="uOS0YNQnV7iNb68Ve3O8e"  >
<path style="stroke: rgb(159,195,233); stroke-width: 0; stroke-dasharray: none; stroke-linecap: butt; stroke-dashoffset: 0; stroke-linejoin: miter; stroke-miterlimit: 4; fill: rgb(100,77,186); fill-rule: nonzero; opacity: 1;"  transform=" translate(0, 0)" d="M -86.88019 51.05114 L -86.88019 -51.614340000000006 L -0.06459999999999866 -99.87098 L 86.88019 -51.614340000000006 L 86.88019 51.05114 L 0.06459999999999866 99.87097 z" stroke-linecap="round" />
</g>
<g transform="matrix(1 0 0 1 143.4077931036 124.1281503548)" id="BCaYXPlSUAt3W04Pg8vXT"  >
<linearGradient id="SVGID_64" gradientUnits="userSpaceOnUse" gradientTransform="matrix(1 0 0 1 -43.4077931036 -75.7426506788)"  x1="0" y1="42.58757046491236" x2="73.98136160834974" y2="81.09024426170376">
<stop offset="0%" style="stop-color:#A874D8;stop-opacity: 1"/>
<stop offset="100%" style="stop-color:#9250CB;stop-opacity: 1"/>
</linearGradient>
<path style="stroke: rgb(159,195,233); stroke-width: 0; stroke-dasharray: none; stroke-linecap: butt; stroke-dashoffset: 0; stroke-linejoin: miter; stroke-miterlimit: 4; fill: url(#SVGID_64); fill-rule: nonzero; opacity: 1;"  transform=" translate(0, 0)" d="M -43.40779 -30.7173 L 43.4078 -75.74265 L 43.4078 26.922830000000005 L -43.40779 75.74266 z" stroke-linecap="round" />
</g>
<g transform="matrix(1 0 0 1 143.3431936204 46.7700258398)" id="od7aWSPzr7pyhkvH66i-g"  >
<path style="stroke: rgb(159,195,233); stroke-width: 0; stroke-dasharray: none; stroke-linecap: butt; stroke-dashoffset: 0; stroke-linejoin: miter; stroke-miterlimit: 4; fill: rgb(131,64,192); fill-rule: nonzero; opacity: 1;"  transform=" translate(0, 0)" d="M -43.47239 -46.64083 L 43.4724 1.615470000000002 L -43.47239 46.640820000000005 z" stroke-linecap="round" />
</g>
<g transform="matrix(-1 0 0 1 56.527605 46.5116260336)" id="evlXU3UpxDaDwdK41HcNx"  >
<path style="stroke: rgb(159,195,233); stroke-width: 0; stroke-dasharray: none; stroke-linecap: butt; stroke-dashoffset: 0; stroke-linejoin: miter; stroke-miterlimit: 4; fill: rgb(94,68,186); fill-rule: nonzero; opacity: 1;"  transform=" translate(-0.000005, 0.000005)" d="M -43.47239 -46.64083 L 43.4724 1.615470000000002 L -43.47239 46.640820000000005 z" stroke-linecap="round" />
</g>
</svg>