<?xml version="1.0" encoding="UTF-8" standalone="no" ?>
<!DOCTYPE svg PUBLIC "-//W3C//DTD SVG 1.1//EN" "http://www.w3.org/Graphics/SVG/1.1/DTD/svg11.dtd">
<svg xmlns="http://www.w3.org/2000/svg" xmlns:xlink="http://www.w3.org/1999/xlink" version="1.1" width="20" height="20" viewBox="0 0 20 20" xml:space="preserve">
<desc>Created with Fabric.js 5.3.0</desc>
<defs>
</defs>
<g transform="matrix(0.0315807317 0 0 0.0315807317 10 14.3839086738)" id="Qh5wJHBKIF0K2IsSunQwp"  >
<path style="stroke: rgb(178,184,255); stroke-width: 0; stroke-dasharray: none; stroke-linecap: butt; stroke-dashoffset: 0; stroke-linejoin: miter; stroke-miterlimit: 4; fill: rgb(146,154,255); fill-rule: nonzero; opacity: 1;" vector-effect="non-scaling-stroke"  transform=" translate(0, 0)" d="M -138.81593 -169.47255 L 146.39397 -169.47255 L 266.95371 121.93757 L 260.06458 150.87190999999999 L 233.19697999999997 169.47256 L -237.33047000000002 169.47256 L -257.30894 154.31647999999998 L -266.95372000000003 127.44887999999999 z" stroke-linecap="round" />
</g>
<g transform="matrix(0.0509711365 0 0 0.0509711365 10 10)" id="XvGJH4G4FMFPdb6F0z9QR"  >
<path style="stroke: rgb(178,184,255); stroke-width: 0.5; stroke-dasharray: none; stroke-linecap: butt; stroke-dashoffset: 0; stroke-linejoin: miter; stroke-miterlimit: 4; fill: rgb(255,255,255); fill-opacity: 0; fill-rule: nonzero; opacity: 1;" vector-effect="non-scaling-stroke"  transform=" translate(0, 0)" d="M -58.36978 -190.13994 L -58.36978 -190.13994 L -58.36978 -190.13994 C -53.876889999999996 -190.13994 -50.23469 -186.49774 -50.23469 -182.00485 L -50.23469 -110.36043000000001 L -50.23469 -110.36043000000001 C -50.23469 -104.69431 -51.40133 -99.08887000000001 -53.66194 -93.89325000000001 L -163.17716000000001 157.80827 L -163.17716000000001 157.80827 C -166.28560000000002 164.95247999999998 -165.58520000000001 173.18203 -161.31415 179.69817999999998 C -157.0431 186.21433 -149.77634 190.13992 -141.98518 190.13992 L 141.84492 190.13992 L 141.84492 190.13992 C 149.65052 190.13992 156.93532 186.2233 161.24026 179.71215999999998 C 165.5452 173.20101999999997 166.2958 164.96421999999998 163.2387 157.78218999999999 L 56.05776999999999 -94.01751000000002 L 56.05776999999999 -94.01751000000002 C 53.88018999999999 -99.13330000000002 52.757769999999994 -104.63604000000001 52.757769999999994 -110.19600000000001 L 52.757769999999994 -182.00486 L 52.757769999999994 -182.00486 C 52.757769999999994 -186.49775 56.399969999999996 -190.13995 60.89285999999999 -190.13995 L 60.89285999999999 -190.13995 z" stroke-linecap="round" />
</g>
</svg>