<?xml version="1.0" encoding="UTF-8" standalone="no" ?>
<!DOCTYPE svg PUBLIC "-//W3C//DTD SVG 1.1//EN" "http://www.w3.org/Graphics/SVG/1.1/DTD/svg11.dtd">
<svg xmlns="http://www.w3.org/2000/svg" xmlns:xlink="http://www.w3.org/1999/xlink" version="1.1" width="640" height="640" viewBox="0 0 640 640" xml:space="preserve">
<desc>Created with Fabric.js 5.3.0</desc>
<defs>
</defs>
<g transform="matrix(1 0 0 1 320 320)" id="OaiQriNCkYujY1s7mtw_B"  >
<path style="stroke: rgb(142,211,105); stroke-width: 0; stroke-dasharray: none; stroke-linecap: butt; stroke-dashoffset: 0; stroke-linejoin: miter; stroke-miterlimit: 4; fill: rgb(0,0,0); fill-rule: nonzero; opacity: 1;" vector-effect="non-scaling-stroke"  transform=" translate(-348.5148552127, -348.5148552127)" d="M 0 0 L 697.02971 0 L 697.02971 697.02971 L 0 697.02971 z" stroke-linecap="round" />
</g>
<g transform="matrix(5.5919443771 0 0 5.5919443771 320 320)" id="aOuhJiaLW64j1zFLpSWW5"  >
<path style="stroke: rgb(255,255,255); stroke-width: 50; stroke-dasharray: none; stroke-linecap: butt; stroke-dashoffset: 0; stroke-linejoin: miter; stroke-miterlimit: 4; fill: none; fill-rule: nonzero; opacity: 1;" vector-effect="non-scaling-stroke"  transform=" translate(0, 0)" d="M -49.50495 -28.50178 C -49.50495 -40.10151 -40.101510000000005 -49.50495 -28.50178 -49.50495 L 28.50178 -49.50495 L 28.50178 -49.50495 C 40.10151 -49.50495 49.50495 -40.101510000000005 49.50495 -28.50178 L 49.50495 28.50178 L 49.50495 28.50178 C 49.50495 40.10151 40.101510000000005 49.50495 28.50178 49.50495 L -28.50178 49.50495 L -28.50178 49.50495 C -40.10151 49.50495 -49.50495 40.101510000000005 -49.50495 28.50178 z" stroke-linecap="round" />
</g>
<g transform="matrix(1 0 0 1 316.0396039604 320.9900990099)" id="GV3p4XCJGaKoSGzng8ErA"  >
<path style="stroke: rgb(255,255,255); stroke-width: 50; stroke-dasharray: none; stroke-linecap: butt; stroke-dashoffset: 0; stroke-linejoin: miter; stroke-miterlimit: 4; fill: rgb(255,255,255); fill-opacity: 0; fill-rule: nonzero; opacity: 1;" vector-effect="non-scaling-stroke"  transform=" translate(0, 0)" d="M -241.58416 -244.05941 L 241.58416 244.05939999999998" stroke-linecap="round" />
</g>
</svg>