<?xml version="1.0" encoding="UTF-8" standalone="no" ?>
<!DOCTYPE svg PUBLIC "-//W3C//DTD SVG 1.1//EN" "http://www.w3.org/Graphics/SVG/1.1/DTD/svg11.dtd">
<svg xmlns="http://www.w3.org/2000/svg" xmlns:xlink="http://www.w3.org/1999/xlink" version="1.1" width="50" height="50" viewBox="0 0 50 50" xml:space="preserve">
<desc>Created with Fabric.js 5.3.0</desc>
<defs>
</defs>
<g transform="matrix(4.11 0 0 4.11 12.5134580491 12.5134566887)" id="rjjFornAQse3QigU_undU"  >
<path style="stroke: rgb(92,115,98); stroke-width: 0; stroke-dasharray: none; stroke-linecap: butt; stroke-dashoffset: 0; stroke-linejoin: miter; stroke-miterlimit: 4; fill: rgb(255,255,255); fill-rule: nonzero; opacity: 1;"  transform=" translate(0, 0)" d="M -2.69107 -1.94797 C -2.69107 -2.35837 -2.35838 -2.6910600000000002 -1.9479799999999998 -2.6910600000000002 L 1.9479700000000002 -2.6910600000000002 L 1.9479700000000002 -2.6910600000000002 C 2.3583700000000003 -2.6910600000000002 2.6910600000000002 -2.3583700000000003 2.6910600000000002 -1.9479700000000002 L 2.6910600000000002 1.9479799999999998 L 2.6910600000000002 1.9479799999999998 C 2.6910600000000002 2.35838 2.3583700000000003 2.69107 1.9479700000000002 2.69107 L -1.9479799999999998 2.69107 L -1.9479799999999998 2.69107 C -2.35838 2.69107 -2.69107 2.35838 -2.69107 1.9479799999999998 z" stroke-linecap="round" />
</g>
<g transform="matrix(4.11 0 0 4.11 37.4865446717 12.5134539679)" id="RszWXx4Sk3IWfbIR4KGd7"  >
<path style="stroke: rgb(92,115,98); stroke-width: 0; stroke-dasharray: none; stroke-linecap: butt; stroke-dashoffset: 0; stroke-linejoin: miter; stroke-miterlimit: 4; fill: rgb(255,255,255); fill-rule: nonzero; opacity: 1;"  transform=" translate(0.000005, -0.000005)" d="M -2.69107 -1.94797 C -2.69107 -2.35837 -2.35838 -2.6910600000000002 -1.9479799999999998 -2.6910600000000002 L 1.9479700000000002 -2.6910600000000002 L 1.9479700000000002 -2.6910600000000002 C 2.3583700000000003 -2.6910600000000002 2.6910600000000002 -2.3583700000000003 2.6910600000000002 -1.9479700000000002 L 2.6910600000000002 1.9479799999999998 L 2.6910600000000002 1.9479799999999998 C 2.6910600000000002 2.35838 2.3583700000000003 2.69107 1.9479700000000002 2.69107 L -1.9479799999999998 2.69107 L -1.9479799999999998 2.69107 C -2.35838 2.69107 -2.69107 2.35838 -2.69107 1.9479799999999998 z" stroke-linecap="round" />
</g>
<g transform="matrix(4.11 0 0 4.11 25 37.4865460321)" id="_XCKzRcPlF1eiPZRqn8Rp"  >
<path style="stroke: rgb(92,115,98); stroke-width: 0; stroke-dasharray: none; stroke-linecap: butt; stroke-dashoffset: 0; stroke-linejoin: miter; stroke-miterlimit: 4; fill: rgb(255,255,255); fill-rule: nonzero; opacity: 1;"  transform=" translate(0.000005, -0.000005)" d="M -2.69107 -1.94797 C -2.69107 -2.35837 -2.35838 -2.6910600000000002 -1.9479799999999998 -2.6910600000000002 L 1.9479700000000002 -2.6910600000000002 L 1.9479700000000002 -2.6910600000000002 C 2.3583700000000003 -2.6910600000000002 2.6910600000000002 -2.3583700000000003 2.6910600000000002 -1.9479700000000002 L 2.6910600000000002 1.9479799999999998 L 2.6910600000000002 1.9479799999999998 C 2.6910600000000002 2.35838 2.3583700000000003 2.69107 1.9479700000000002 2.69107 L -1.9479799999999998 2.69107 L -1.9479799999999998 2.69107 C -2.35838 2.69107 -2.69107 2.35838 -2.69107 1.9479799999999998 z" stroke-linecap="round" />
</g>
</svg>