<?xml version="1.0" encoding="UTF-8" standalone="no" ?>
<!DOCTYPE svg PUBLIC "-//W3C//DTD SVG 1.1//EN" "http://www.w3.org/Graphics/SVG/1.1/DTD/svg11.dtd">
<svg xmlns="http://www.w3.org/2000/svg" xmlns:xlink="http://www.w3.org/1999/xlink" version="1.1" width="50" height="50" viewBox="0 0 50 50" xml:space="preserve">
<desc>Created with Fabric.js 5.3.0</desc>
<defs>
</defs>
<g transform="matrix(1.731493465 0 0 1.731493465 6.3889836758 25)" id="eGAcXGD7f--pPfjP15o5C"  >
<path style="stroke: rgb(162,66,146); stroke-width: 0; stroke-dasharray: none; stroke-linecap: butt; stroke-dashoffset: 0; stroke-linejoin: miter; stroke-miterlimit: 4; fill: rgb(255,255,255); fill-rule: nonzero; opacity: 1;"  transform=" translate(0, 0)" d="M 0 -2.69107 C 1.48547 -2.69107 2.69107 -1.4854699999999998 2.69107 0 C 2.69107 1.48547 1.4854699999999998 2.69107 0 2.69107 C -1.48547 2.69107 -2.69107 1.4854699999999998 -2.69107 0 C -2.69107 -1.48547 -1.4854699999999998 -2.69107 0 -2.69107 z" stroke-linecap="round" />
</g>
<g transform="matrix(1.731493465 0 0 1.731493465 43.6110163242 24.9999924887)" id="ONPejInuvyHK8osc7bEHi"  >
<path style="stroke: rgb(162,66,146); stroke-width: 0; stroke-dasharray: none; stroke-linecap: butt; stroke-dashoffset: 0; stroke-linejoin: miter; stroke-miterlimit: 4; fill: rgb(255,255,255); fill-rule: nonzero; opacity: 1;"  transform=" translate(0, 0)" d="M 0 -2.69107 C 1.48547 -2.69107 2.69107 -1.4854699999999998 2.69107 0 C 2.69107 1.48547 1.4854699999999998 2.69107 0 2.69107 C -1.48547 2.69107 -2.69107 1.4854699999999998 -2.69107 0 C -2.69107 -1.48547 -1.4854699999999998 -2.69107 0 -2.69107 z" stroke-linecap="round" />
</g>
<g transform="matrix(1.731493465 0 0 1.731493465 25 24.9999924887)" id="furMqmotGj67D03PgKmWV"  >
<path style="stroke: rgb(162,66,146); stroke-width: 0; stroke-dasharray: none; stroke-linecap: butt; stroke-dashoffset: 0; stroke-linejoin: miter; stroke-miterlimit: 4; fill: rgb(255,255,255); fill-rule: nonzero; opacity: 1;"  transform=" translate(0, 0)" d="M 0 -2.69107 C 1.48547 -2.69107 2.69107 -1.4854699999999998 2.69107 0 C 2.69107 1.48547 1.4854699999999998 2.69107 0 2.69107 C -1.48547 2.69107 -2.69107 1.4854699999999998 -2.69107 0 C -2.69107 -1.48547 -1.4854699999999998 -2.69107 0 -2.69107 z" stroke-linecap="round" />
</g>
</svg>