<?xml version="1.0" encoding="UTF-8" standalone="no" ?>
<!DOCTYPE svg PUBLIC "-//W3C//DTD SVG 1.1//EN" "http://www.w3.org/Graphics/SVG/1.1/DTD/svg11.dtd">
<svg xmlns="http://www.w3.org/2000/svg" xmlns:xlink="http://www.w3.org/1999/xlink" version="1.1" width="50" height="50" viewBox="0 0 50 50" xml:space="preserve">
<desc>Created with Fabric.js 5.3.0</desc>
<defs>
</defs>
<g transform="matrix(-2.5145840558 6.2238139382 0.9271838546 0.3746065934 31.8001728107 25)" id="GCRJ1MRYRHCt_UiVCgDsp"  >
<path style="stroke: rgb(62,224,105); stroke-width: 0; stroke-dasharray: none; stroke-linecap: butt; stroke-dashoffset: 0; stroke-linejoin: miter; stroke-miterlimit: 4; fill: rgb(100,255,100); fill-rule: nonzero; opacity: 1;" vector-effect="non-scaling-stroke"  transform=" translate(0, 0)" d="M -3.861 -0.04037 C -3.861 -2.1504499999999998 -3.60617 -3.8609999999999998 -3.29183 -3.8609999999999998 L 3.29183 -3.8609999999999998 L 3.29183 -3.8609999999999998 C 3.60618 -3.8609999999999998 3.8609999999999998 -2.1504499999999998 3.8609999999999998 -0.040369999999999795 L 3.8609999999999998 0.04038000000000021 L 3.8609999999999998 0.04038000000000021 C 3.8609999999999998 2.1504600000000003 3.6061699999999997 3.8610100000000003 3.29183 3.8610100000000003 L -3.29183 3.8610100000000003 L -3.29183 3.8610100000000003 C -3.60618 3.8610100000000003 -3.8609999999999998 2.1504600000000003 -3.8609999999999998 0.040380000000000305 z" stroke-linecap="round" />
</g>
<g transform="matrix(-2.3449526518 -2.3449526518 -0.7071067812 0.7071067812 16.6951612537 38.6925138944)" id="mlo94GDqownAB81KVXru3"  >
<path style="stroke: rgb(62,224,105); stroke-width: 0; stroke-dasharray: none; stroke-linecap: butt; stroke-dashoffset: 0; stroke-linejoin: miter; stroke-miterlimit: 4; fill: rgb(100,255,100); fill-rule: nonzero; opacity: 1;" vector-effect="non-scaling-stroke"  transform=" translate(0, 0)" d="M -3.861 -0.04037 C -3.861 -2.1504499999999998 -3.34519 -3.8609999999999998 -2.7089100000000004 -3.8609999999999998 L 2.70892 -3.8609999999999998 L 2.70892 -3.8609999999999998 C 3.3452 -3.8609999999999998 3.8610100000000003 -2.1504499999999998 3.8610100000000003 -0.040369999999999795 L 3.8610100000000003 0.04038000000000021 L 3.8610100000000003 0.04038000000000021 C 3.8610100000000003 2.1504600000000003 3.3452 3.8610100000000003 2.70892 3.8610100000000003 L -2.7089100000000004 3.8610100000000003 L -2.7089100000000004 3.8610100000000003 C -3.3451900000000006 3.8610100000000003 -3.8610000000000007 2.1504600000000003 -3.8610000000000007 0.040380000000000305 z" stroke-linecap="round" />
</g>
</svg>