<?xml version="1.0" encoding="UTF-8" standalone="no" ?>
<!DOCTYPE svg PUBLIC "-//W3C//DTD SVG 1.1//EN" "http://www.w3.org/Graphics/SVG/1.1/DTD/svg11.dtd">
<svg xmlns="http://www.w3.org/2000/svg" xmlns:xlink="http://www.w3.org/1999/xlink" version="1.1" width="50" height="50" viewBox="0 0 50 50" xml:space="preserve">
<desc>Created with Fabric.js 5.3.0</desc>
<defs>
</defs>
<g transform="matrix(1.41 0 0 1.41 24.9999844791 5.8333403833)" id="Ui3rrkFVXN2PCUMpw34yL"  >
<path style="stroke: rgb(255,255,255); stroke-width: 0; stroke-dasharray: none; stroke-linecap: butt; stroke-dashoffset: 0; stroke-linejoin: miter; stroke-miterlimit: 4; fill: rgb(255,255,255); fill-rule: nonzero; opacity: 1;" vector-effect="non-scaling-stroke"  transform=" translate(0.00001, -0.000005)" d="M -3.87597 -2.23153 C -3.87597 -3.1397299999999997 -3.13973 -3.87596 -2.23154 -3.87596 L 2.2315300000000002 -3.87596 L 2.2315300000000002 -3.87596 C 3.13973 -3.87596 3.87596 -3.13972 3.87596 -2.2315300000000002 L 3.87596 3.8759699999999997 L -3.87598 3.8759699999999997 z" stroke-linecap="round" />
</g>
<g transform="matrix(1.41 0 0 -1.41 25 44.1666722957)" id="-UOuHloBs-Q8OZzJH3Cyp"  >
<path style="stroke: rgb(255,255,255); stroke-width: 0; stroke-dasharray: none; stroke-linecap: butt; stroke-dashoffset: 0; stroke-linejoin: miter; stroke-miterlimit: 4; fill: rgb(255,255,255); fill-rule: nonzero; opacity: 1;" vector-effect="non-scaling-stroke"  transform=" translate(0.00001, -0.000005)" d="M -3.87597 -2.23153 C -3.87597 -3.1397299999999997 -3.13973 -3.87596 -2.23154 -3.87596 L 2.2315300000000002 -3.87596 L 2.2315300000000002 -3.87596 C 3.13973 -3.87596 3.87596 -3.13972 3.87596 -2.2315300000000002 L 3.87596 3.8759699999999997 L -3.87598 3.8759699999999997 z" stroke-linecap="round" />
</g>
<g transform="matrix(-0.9970205615 -0.9970205615 0.9970205615 -0.9970205615 11.447121032 38.5528809775)" id="KnYQJUuLaIr6uvN7ZxM9Q"  >
<path style="stroke: rgb(255,255,255); stroke-width: 0; stroke-dasharray: none; stroke-linecap: butt; stroke-dashoffset: 0; stroke-linejoin: miter; stroke-miterlimit: 4; fill: rgb(255,255,255); fill-rule: nonzero; opacity: 1;" vector-effect="non-scaling-stroke"  transform=" translate(0.00001, -0.000005)" d="M -3.87597 -2.23153 C -3.87597 -3.1397299999999997 -3.13973 -3.87596 -2.23154 -3.87596 L 2.2315300000000002 -3.87596 L 2.2315300000000002 -3.87596 C 3.13973 -3.87596 3.87596 -3.13972 3.87596 -2.2315300000000002 L 3.87596 3.8759699999999997 L -3.87598 3.8759699999999997 z" stroke-linecap="round" />
</g>
<g transform="matrix(-0.9970205615 -0.9970205615 -0.9970205615 0.9970205615 38.5528839531 11.4471160469)" id="8U_MNQE0Y-UatWAo-4x3S"  >
<path style="stroke: rgb(255,255,255); stroke-width: 0; stroke-dasharray: none; stroke-linecap: butt; stroke-dashoffset: 0; stroke-linejoin: miter; stroke-miterlimit: 4; fill: rgb(255,255,255); fill-rule: nonzero; opacity: 1;" vector-effect="non-scaling-stroke"  transform=" translate(0.00001, -0.000005)" d="M -3.87597 -2.23153 C -3.87597 -3.1397299999999997 -3.13973 -3.87596 -2.23154 -3.87596 L 2.2315300000000002 -3.87596 L 2.2315300000000002 -3.87596 C 3.13973 -3.87596 3.87596 -3.13972 3.87596 -2.2315300000000002 L 3.87596 3.8759699999999997 L -3.87598 3.8759699999999997 z" stroke-linecap="round" />
</g>
<g transform="matrix(0 1.41 -1.41 0 44.0179946031 25)" id="-PiaTR42bdNH8EW2shR81"  >
<path style="stroke: rgb(255,255,255); stroke-width: 0; stroke-dasharray: none; stroke-linecap: butt; stroke-dashoffset: 0; stroke-linejoin: miter; stroke-miterlimit: 4; fill: rgb(255,255,255); fill-rule: nonzero; opacity: 1;" vector-effect="non-scaling-stroke"  transform=" translate(0.00001, -0.000005)" d="M -3.87597 -2.23153 C -3.87597 -3.1397299999999997 -3.13973 -3.87596 -2.23154 -3.87596 L 2.2315300000000002 -3.87596 L 2.2315300000000002 -3.87596 C 3.13973 -3.87596 3.87596 -3.13972 3.87596 -2.2315300000000002 L 3.87596 3.8759699999999997 L -3.87598 3.8759699999999997 z" stroke-linecap="round" />
</g>
<g transform="matrix(0 1.41 1.41 0 5.8333277043 25)" id="-0uYcWkKvJ4ia9q_YmnEF"  >
<path style="stroke: rgb(255,255,255); stroke-width: 0; stroke-dasharray: none; stroke-linecap: butt; stroke-dashoffset: 0; stroke-linejoin: miter; stroke-miterlimit: 4; fill: rgb(255,255,255); fill-rule: nonzero; opacity: 1;" vector-effect="non-scaling-stroke"  transform=" translate(0.00001, -0.000005)" d="M -3.87597 -2.23153 C -3.87597 -3.1397299999999997 -3.13973 -3.87596 -2.23154 -3.87596 L 2.2315300000000002 -3.87596 L 2.2315300000000002 -3.87596 C 3.13973 -3.87596 3.87596 -3.13972 3.87596 -2.2315300000000002 L 3.87596 3.8759699999999997 L -3.87598 3.8759699999999997 z" stroke-linecap="round" />
</g>
<g transform="matrix(-0.9970205615 0.9970205615 -0.9970205615 -0.9970205615 38.5528809775 38.552878968)" id="WZjYABlprjhmItoivkB3k"  >
<path style="stroke: rgb(255,255,255); stroke-width: 0; stroke-dasharray: none; stroke-linecap: butt; stroke-dashoffset: 0; stroke-linejoin: miter; stroke-miterlimit: 4; fill: rgb(255,255,255); fill-rule: nonzero; opacity: 1;" vector-effect="non-scaling-stroke"  transform=" translate(0.00001, -0.000005)" d="M -3.87597 -2.23153 C -3.87597 -3.1397299999999997 -3.13973 -3.87596 -2.23154 -3.87596 L 2.2315300000000002 -3.87596 L 2.2315300000000002 -3.87596 C 3.13973 -3.87596 3.87596 -3.13972 3.87596 -2.2315300000000002 L 3.87596 3.8759699999999997 L -3.87598 3.8759699999999997 z" stroke-linecap="round" />
</g>
<g transform="matrix(-0.9970205615 0.9970205615 0.9970205615 0.9970205615 11.4471160469 11.4471160469)" id="VKj7bVqf_7VMK89aCzllk"  >
<path style="stroke: rgb(255,255,255); stroke-width: 0; stroke-dasharray: none; stroke-linecap: butt; stroke-dashoffset: 0; stroke-linejoin: miter; stroke-miterlimit: 4; fill: rgb(255,255,255); fill-rule: nonzero; opacity: 1;" vector-effect="non-scaling-stroke"  transform=" translate(0.00001, -0.000005)" d="M -3.87597 -2.23153 C -3.87597 -3.1397299999999997 -3.13973 -3.87596 -2.23154 -3.87596 L 2.2315300000000002 -3.87596 L 2.2315300000000002 -3.87596 C 3.13973 -3.87596 3.87596 -3.13972 3.87596 -2.2315300000000002 L 3.87596 3.8759699999999997 L -3.87598 3.8759699999999997 z" stroke-linecap="round" />
</g>
<g transform="matrix(3.167401893 0 0 3.167401893 25 25)" id="ZSXSc_IBzTboNt3VZkNeA"  >
<path style="stroke: rgb(255,255,255); stroke-width: 11; stroke-dasharray: none; stroke-linecap: butt; stroke-dashoffset: 0; stroke-linejoin: miter; stroke-miterlimit: 4; fill: none; fill-rule: nonzero; opacity: 1;" vector-effect="non-scaling-stroke"  transform=" translate(0, 0)" d="M 0 -3.87597 C 2.13953 -3.87597 3.87597 -2.13954 3.87597 0 C 3.87597 2.13953 2.13954 3.87597 0 3.87597 C -2.13953 3.87597 -3.87597 2.13954 -3.87597 0 C -3.87597 -2.13953 -2.13954 -3.87597 0 -3.87597 z" stroke-linecap="round" />
</g>
</svg>