<?xml version="1.0" encoding="UTF-8" standalone="no" ?>
<!DOCTYPE svg PUBLIC "-//W3C//DTD SVG 1.1//EN" "http://www.w3.org/Graphics/SVG/1.1/DTD/svg11.dtd">
<svg xmlns="http://www.w3.org/2000/svg" xmlns:xlink="http://www.w3.org/1999/xlink" version="1.1" width="1200" height="640" viewBox="0 0 1200 640" xml:space="preserve">
<desc>Created with Fabric.js 5.3.0</desc>
<defs>
</defs>
<g transform="matrix(2.2211860362 0 0 1.1871442878 600 320)" id="S5KO-y_BAbz9Qo7c3rU-F"  >
<linearGradient id="SVGID_0" gradientUnits="userSpaceOnUse" gradientTransform="matrix(1 0 0 1 -272.15 -272.15)"  x1="0" y1="5.684341886080802e-14" x2="544.3038021070263" y2="544.3038021070263">
<stop offset="0%" style="stop-color:rgb(77,77,77);stop-opacity: 1"/>
<stop offset="100%" style="stop-color:rgb(0,0,0);stop-opacity: 1"/>
</linearGradient>
<path style="stroke: rgb(195,70,138); stroke-width: 0; stroke-dasharray: none; stroke-linecap: butt; stroke-dashoffset: 0; stroke-linejoin: miter; stroke-miterlimit: 4; fill: url(#SVGID_0); fill-rule: nonzero; opacity: 1;" vector-effect="non-scaling-stroke"  transform=" translate(0, 0)" d="M -272.1519 -272.1519 L 272.1519 -272.1519 L 272.1519 272.1519 L -272.1519 272.1519 z" stroke-linecap="round" />
</g>
<g transform="matrix(1.1807363409 0 0 1.1807363409 600 320)" id="4YYBQvqUGxgcuwYCHplJN"  >
<linearGradient id="SVGID_209" gradientUnits="userSpaceOnUse" gradientTransform="matrix(1 0 0 1 -180.555557 -180.5555555556)"  x1="361.1111140000004" y1="361.11111111111126" x2="-2.842170943040401e-14" y2="2.842170943040401e-14">
<stop offset="0%" style="stop-color:#B0B0B0;stop-opacity: 1"/>
<stop offset="100%" style="stop-color:#494949;stop-opacity: 1"/>
</linearGradient>
<path style="stroke: rgb(30,159,244); stroke-width: 0; stroke-dasharray: none; stroke-linecap: butt; stroke-dashoffset: 0; stroke-linejoin: miter; stroke-miterlimit: 4; fill: url(#SVGID_209); fill-rule: nonzero; opacity: 1;"  transform=" translate(0, 0)" d="M -69.44444 69.44445 L -142.83008 69.44445 L -142.83008 69.44445 C -163.66528 69.44445 -180.55555 52.55418 -180.55555 31.718980000000002 L -180.55555 -31.71897 L -180.55555 -31.71897 C -180.55555 -52.55417 -163.66528 -69.44444 -142.83008 -69.44444 L -69.44444000000001 -69.44444 L -69.44444000000001 -142.83008 L -69.44444000000001 -142.83008 C -69.44444000000001 -163.66528 -52.55417000000001 -180.55555 -31.718970000000013 -180.55555 L 31.718979999999988 -180.55555 L 31.718979999999988 -180.55555 C 52.55417999999999 -180.55555 69.44444999999999 -163.66528 69.44444999999999 -142.83008 L 69.44444999999999 -69.44444000000001 L 142.83008999999998 -69.44444000000001 L 142.83008999999998 -69.44444000000001 C 163.66528999999997 -69.44444000000001 180.55555999999999 -52.55417000000001 180.55555999999999 -31.718970000000013 L 180.55555999999999 31.718979999999988 L 180.55555999999999 31.718979999999988 C 180.55555999999999 52.55417999999999 163.66528999999997 69.44444999999999 142.83008999999998 69.44444999999999 L 69.44444999999999 69.44444999999999 L 69.44444999999999 142.83008999999998 L 69.44444999999999 142.83008999999998 C 69.44444999999999 163.66528999999997 52.55417999999999 180.55555999999999 31.718979999999988 180.55555999999999 L -31.718970000000013 180.55555999999999 L -31.718970000000013 180.55555999999999 C -52.55417000000001 180.55555999999999 -69.44444000000001 163.66528999999997 -69.44444000000001 142.83008999999998 z" stroke-linecap="round" />
</g>
</svg>