<?xml version="1.0" encoding="UTF-8" standalone="no" ?>
<!DOCTYPE svg PUBLIC "-//W3C//DTD SVG 1.1//EN" "http://www.w3.org/Graphics/SVG/1.1/DTD/svg11.dtd">
<svg xmlns="http://www.w3.org/2000/svg" xmlns:xlink="http://www.w3.org/1999/xlink" version="1.1" width="100" height="100" viewBox="0 0 500 500" xml:space="preserve">
<desc>Created with Fabric.js 5.3.0</desc>
<defs>
</defs>
<g transform="matrix(1 0 0 1 250 250)" id="u9KrLvu-Y_kUoskxYuSGa"  >
<linearGradient id="SVGID_79" gradientUnits="userSpaceOnUse" gradientTransform="matrix(1 0 0 1 0 0)"  x1="-5.684341886080802e-14" y1="-5.684341886080802e-14" x2="524.0740776564594" y2="524.0740776564594">
<stop offset="0%" style="stop-color:#8B82FC;stop-opacity: 1"/>
<stop offset="100%" style="stop-color:#403C74;stop-opacity: 1"/>
</linearGradient>
<path style="stroke: rgb(235,45,55); stroke-width: 0; stroke-dasharray: none; stroke-linecap: butt; stroke-dashoffset: 0; stroke-linejoin: miter; stroke-miterlimit: 4; fill: url(#SVGID_79); fill-rule: nonzero; opacity: 1;" vector-effect="non-scaling-stroke"  transform=" translate(-262.0370388282, -262.0370388282)" d="M 0 0 L 524.07408 0 L 524.07408 524.07408 L 0 524.07408 z" stroke-linecap="round" />
</g>
<g transform="matrix(1.0958702146 0 0 1.0958702146 249.3787256097 215.6422993135)" id="za3ZeG41oVBCgcst0ITWD"  >
<path style="stroke: rgb(30,78,216); stroke-width: 0; stroke-dasharray: none; stroke-linecap: butt; stroke-dashoffset: 0; stroke-linejoin: miter; stroke-miterlimit: 4; fill: rgb(105,105,105); fill-rule: nonzero; opacity: 1;" vector-effect="non-scaling-stroke"  transform=" translate(0, 0)" d="M 0 -131.39534 C 72.53023 -131.39534 131.39534 -72.53023 131.39534 0 C 131.39534 72.53023 72.53023 131.39534 0 131.39534 C -72.53023 131.39534 -131.39534 72.53023 -131.39534 0 C -131.39534 -72.53023 -72.53023 -131.39534 0 -131.39534 z" stroke-linecap="round" />
</g>
<g transform="matrix(1.9429680301 0 0 1.1665232775 250 476.9014514834)" id="lmRWRYjT6IFu6TufjODpm"  >
<path style="stroke: rgb(30,78,216); stroke-width: 0; stroke-dasharray: none; stroke-linecap: butt; stroke-dashoffset: 0; stroke-linejoin: miter; stroke-miterlimit: 4; fill: rgb(105,105,105); fill-rule: nonzero; opacity: 1;" vector-effect="non-scaling-stroke"  transform=" translate(0, 0)" d="M 0 -131.39534 C 72.53023 -131.39534 131.39534 -72.53023 131.39534 0 C 131.39534 72.53023 72.53023 131.39534 0 131.39534 C -72.53023 131.39534 -131.39534 72.53023 -131.39534 0 C -131.39534 -72.53023 -72.53023 -131.39534 0 -131.39534 z" stroke-linecap="round" />
</g>
<g transform="matrix(1.0122532931 0 0 1.0122532931 249.3787256097 267.6281751578)" id="bXPUpEnmZa0G_t8cmnNuN"  >
<path style="stroke: rgb(180,94,153); stroke-width: 0; stroke-dasharray: none; stroke-linecap: butt; stroke-dashoffset: 0; stroke-linejoin: miter; stroke-miterlimit: 4; fill: rgb(181,181,181); fill-rule: nonzero; opacity: 1;" vector-effect="non-scaling-stroke"  transform=" translate(0, 0)" d="M 102.71318 -51.35659 C 102.71318 -51.35659 102.69767999999999 -49.27914 102.6669 -48.24603 C 101.02061 7.01455 55.65715 51.356590000000004 0 51.356590000000004 C -55.66561 51.356590000000004 -101.03441 7.001070000000006 -102.66765 -48.27124 C -102.69793 -49.296009999999995 -102.71318 -51.35659 -102.71318 -51.35659 z" stroke-linecap="round" />
</g>
</svg>