<?xml version="1.0" encoding="UTF-8" standalone="no" ?>
<!DOCTYPE svg PUBLIC "-//W3C//DTD SVG 1.1//EN" "http://www.w3.org/Graphics/SVG/1.1/DTD/svg11.dtd">
<svg xmlns="http://www.w3.org/2000/svg" xmlns:xlink="http://www.w3.org/1999/xlink" version="1.1" width="50" height="50" viewBox="0 0 50 50" xml:space="preserve">
<desc>Created with Fabric.js 5.3.0</desc>
<defs>
</defs>
<g transform="matrix(1 0 0 1 25.0000050855 25.4844957438)" id="mJJefPO-gl7H25If9Ndqw"  >
<path style="stroke: rgb(255,255,255); stroke-width: 0; stroke-dasharray: none; stroke-linecap: butt; stroke-dashoffset: 0; stroke-linejoin: miter; stroke-miterlimit: 4; fill: rgb(255,255,255); fill-rule: nonzero; opacity: 1;" vector-effect="non-scaling-stroke"  transform=" translate(0, 0)" d="M -24.96124 15.26044 C -24.96124 16.72208 -23.77635 17.906979999999997 -22.314700000000002 17.906979999999997 L 22.314709999999998 17.906979999999997 L 22.314709999999998 17.906979999999997 C 23.776349999999997 17.906979999999997 24.96125 16.722089999999998 24.96125 15.260439999999997 L 24.96125 -15.260440000000001 L 24.96125 -15.260440000000001 C 24.96125 -16.722080000000002 23.77636 -17.90698 22.314709999999998 -17.90698 C 22.314709999999998 -17.90698 8.624729999999998 -0.8654399999999995 1.8819099999999978 7.52816 L 1.8819099999999978 7.52816 C 1.4237299999999977 8.09852 0.7315999999999978 8.43031 -2.220446049250313e-15 8.43031 C -0.7316000000000022 8.43031 -1.4237300000000022 8.09852 -1.8819100000000022 7.528160000000001 L -22.314700000000002 -17.90698 L -22.314700000000002 -17.90698 C -23.77634 -17.90698 -24.961240000000004 -16.72209 -24.961240000000004 -15.260440000000001 z" stroke-linecap="round" />
</g>
<g transform="matrix(0.801407819 0 0 0.9012151442 25.0000050855 19.3793381099)" id="MV0GQy45kzeBroQT21I7D"  >
<path style="stroke: rgb(255,255,255); stroke-width: 0; stroke-dasharray: none; stroke-linecap: butt; stroke-dashoffset: 0; stroke-linejoin: miter; stroke-miterlimit: 4; fill: rgb(255,255,255); fill-rule: nonzero; opacity: 1;" vector-effect="non-scaling-stroke"  transform=" translate(0, 0.000005)" d="M -24.94186 -13.09546 L 24.94186 -13.09546 L 2.149429999999999 12.17819 L 2.149429999999999 12.17819 C 1.6265099999999988 12.758040000000001 0.8358499999999989 13.095450000000001 -1.3322676295501878e-15 13.095450000000001 C -0.8358500000000013 13.095450000000001 -1.6265000000000014 12.758040000000001 -2.1494300000000015 12.17819 z" stroke-linecap="round" />
</g>
</svg>