<?xml version="1.0" encoding="UTF-8" standalone="no" ?>
<!DOCTYPE svg PUBLIC "-//W3C//DTD SVG 1.1//EN" "http://www.w3.org/Graphics/SVG/1.1/DTD/svg11.dtd">
<svg xmlns="http://www.w3.org/2000/svg" xmlns:xlink="http://www.w3.org/1999/xlink" version="1.1" width="1200" height="640" viewBox="0 0 1200 640" xml:space="preserve">
<desc>Created with Fabric.js 5.3.0</desc>
<defs>
</defs>
<g transform="matrix(11.6160714286 0 0 11.6160714286 22023.6340040458 -243.6669644377)" id="IU91sCFDLipgRCtRE_N_s"  >
<path style="stroke: rgb(163,136,149); stroke-width: 0; stroke-dasharray: none; stroke-linecap: butt; stroke-dashoffset: 0; stroke-linejoin: miter; stroke-miterlimit: 4; fill: rgb(0,0,0); fill-rule: nonzero; opacity: 1;"  transform=" translate(-137.19008, -137.19008)" d="M 137.19008 0 C 212.91899999999998 0 274.38016 61.46116 274.38016 137.19008 C 274.38016 212.91899999999998 212.91899999999998 274.38016 137.19008 274.38016 C 61.46115999999999 274.38016 0 212.91899999999998 0 137.19008 C 0 61.46115999999999 61.46116 0 137.19008 0 z" stroke-linecap="round" />
</g>
<g transform="matrix(2.2211860362 0 0 1.1871442878 600 320)" id="9DQ7Fw_FkdvdiujE7Sm1f"  >
<linearGradient id="SVGID_31" gradientUnits="userSpaceOnUse" gradientTransform="matrix(1 0 0 1 -272.15 -272.15)"  x1="0" y1="5.684341886080802e-14" x2="544.3038021070263" y2="544.3038021070263">
<stop offset="0%" style="stop-color:rgb(77,77,77);stop-opacity: 1"/>
<stop offset="100%" style="stop-color:rgb(0,0,0);stop-opacity: 1"/>
</linearGradient>
<path style="stroke: rgb(195,70,138); stroke-width: 0; stroke-dasharray: none; stroke-linecap: butt; stroke-dashoffset: 0; stroke-linejoin: miter; stroke-miterlimit: 4; fill: url(#SVGID_31); fill-rule: nonzero; opacity: 1;" vector-effect="non-scaling-stroke"  transform=" translate(0, 0)" d="M -272.1519 -272.1519 L 272.1519 -272.1519 L 272.1519 272.1519 L -272.1519 272.1519 z" stroke-linecap="round" />
</g>
<g transform="matrix(0.9368746199 0 0 0.9368746199 856.2295269696 293.3976439578)" id="wB3WFrKQu4dcnKHqUtvyC"  >
<g style=""   >
		<g transform="matrix(0.8959891449 0 0 0.8959891449 0 -115.3318957394)" id="BJ22ZzbXQjnfoC2PPowEp"  >
<radialGradient id="SVGID_190" gradientUnits="userSpaceOnUse" gradientTransform="matrix(1 0 0 1 -121.75325 -121.75325)"  cx="41.86266489416093" cy="35.47141834543409" r="252.61420678193448" fx="41.86266489416093" fy="35.47141834543409">
<stop offset="0%" style="stop-color:#2CFF44;stop-opacity: 1"/>
<stop offset="100%" style="stop-color:#2CBEFF;stop-opacity: 1"/>
</radialGradient>
<path style="stroke: rgb(227,179,111); stroke-width: 0; stroke-dasharray: none; stroke-linecap: butt; stroke-dashoffset: 0; stroke-linejoin: miter; stroke-miterlimit: 4; fill: url(#SVGID_190); fill-rule: nonzero; opacity: 1;" vector-effect="non-scaling-stroke"  transform=" translate(0, 0)" d="M 0 -121.75325 C 67.20779 -121.75325 121.75325 -67.20779999999999 121.75325 0 C 121.75325 67.20779 67.20779999999999 121.75325 0 121.75325 C -67.20779 121.75325 -121.75325 67.20779999999999 -121.75325 0 C -121.75325 -67.20779 -67.20779999999999 -121.75325 0 -121.75325 z" stroke-linecap="round" />
</g>
		<g transform="matrix(1.679576813 0 0 1.2367295781 0 117.9643628535)" id="Kc6GrJnnpx_tLMquDBiNf"  >
<radialGradient id="SVGID_198" gradientUnits="userSpaceOnUse" gradientTransform="matrix(1 0 0 1 -121.75325 -86.07955)"  cx="41.86266489416093" cy="35.47141834543409" r="252.61420678193448" fx="41.86266489416093" fy="35.47141834543409">
<stop offset="0%" style="stop-color:#2CFF44;stop-opacity: 1"/>
<stop offset="100%" style="stop-color:#2CBEFF;stop-opacity: 1"/>
</radialGradient>
<path style="stroke: rgb(227,179,111); stroke-width: 0; stroke-dasharray: none; stroke-linecap: butt; stroke-dashoffset: 0; stroke-linejoin: miter; stroke-miterlimit: 4; fill: url(#SVGID_198); fill-rule: nonzero; opacity: 1;" vector-effect="non-scaling-stroke"  transform=" translate(0, 0.000001875)" d="M 0 -86.07955 C 67.20779 -86.07955 121.75325 -31.534099999999995 121.75325 35.6737 C 121.75325 102.88149 -121.75325 102.8815 -121.75325 35.6737 C -121.75325 -31.534090000000006 -67.20779999999999 -86.07955 0 -86.07955 z" stroke-linecap="round" />
</g>
</g>
</g>
<g transform="matrix(0.9368746199 0 0 0.9368746199 343.7704730304 293.3976439562)" id="q6JoM6BOGucZ8JhHUxwrl"  >
<g style=""   >
		<g transform="matrix(0.8959891449 0 0 0.8959891449 0 -115.3318957361)" id="iuZ0li5cWJn8kggV1QHtw"  >
<radialGradient id="SVGID_380" gradientUnits="userSpaceOnUse" gradientTransform="matrix(1 0 0 1 -121.75325 -121.75325)"  cx="41.86266489416093" cy="35.47141834543409" r="252.61420678193448" fx="41.86266489416093" fy="35.47141834543409">
<stop offset="0%" style="stop-color:#E62CFF;stop-opacity: 1"/>
<stop offset="100%" style="stop-color:#FF8282;stop-opacity: 1"/>
</radialGradient>
<path style="stroke: rgb(227,179,111); stroke-width: 0; stroke-dasharray: none; stroke-linecap: butt; stroke-dashoffset: 0; stroke-linejoin: miter; stroke-miterlimit: 4; fill: url(#SVGID_380); fill-rule: nonzero; opacity: 1;" vector-effect="non-scaling-stroke"  transform=" translate(0, 0)" d="M 0 -121.75325 C 67.20779 -121.75325 121.75325 -67.20779999999999 121.75325 0 C 121.75325 67.20779 67.20779999999999 121.75325 0 121.75325 C -67.20779 121.75325 -121.75325 67.20779999999999 -121.75325 0 C -121.75325 -67.20779 -67.20779999999999 -121.75325 0 -121.75325 z" stroke-linecap="round" />
</g>
		<g transform="matrix(1.679576813 0 0 1.2367295781 0 117.9643628568)" id="f_CKC_GnYXmyUkOZTVJvS"  >
<radialGradient id="SVGID_387" gradientUnits="userSpaceOnUse" gradientTransform="matrix(1 0 0 1 -121.75325 -86.079548125)"  cx="41.86266489416093" cy="35.47141834543409" r="252.61420678193448" fx="41.86266489416093" fy="35.47141834543409">
<stop offset="0%" style="stop-color:#E62CFF;stop-opacity: 1"/>
<stop offset="100%" style="stop-color:#FF8282;stop-opacity: 1"/>
</radialGradient>
<path style="stroke: rgb(227,179,111); stroke-width: 0; stroke-dasharray: none; stroke-linecap: butt; stroke-dashoffset: 0; stroke-linejoin: miter; stroke-miterlimit: 4; fill: url(#SVGID_387); fill-rule: nonzero; opacity: 1;" vector-effect="non-scaling-stroke"  transform=" translate(0, 0)" d="M 0 -86.07955 C 67.20779 -86.07955 121.75325 -31.534099999999995 121.75325 35.6737 C 121.75325 102.88149 -121.75325 102.8815 -121.75325 35.6737 C -121.75325 -31.534090000000006 -67.20779999999999 -86.07955 0 -86.07955 z" stroke-linecap="round" />
</g>
</g>
</g>
<g transform="matrix(20.9248791289 0 0 20.9248791289 22023.6340445801 3627.5770183446)" id="UuMF3AoBXE-ZRnAE0qufu"  >
<path style="stroke: rgb(163,136,149); stroke-width: 0; stroke-dasharray: none; stroke-linecap: butt; stroke-dashoffset: 0; stroke-linejoin: miter; stroke-miterlimit: 4; fill: rgb(0,0,0); fill-rule: nonzero; opacity: 1;"  transform=" translate(0, -0.0000043818)" d="M -43.94085 -93.29662 C -30.14414 -97.96314000000001 0 -18.016760000000005 0 -18.016760000000005 C 0 -18.016760000000005 30.69218 -97.86840000000001 44.70758 -93.03474 C 98.50799 -74.47994 137.19008 -23.38158 137.19008 36.696560000000005 C 137.19008 112.42548000000001 -137.19008 112.42548000000001 -137.19008 36.696560000000005 C -137.19008 -23.666589999999992 -98.14008999999999 -74.96455999999999 -43.94085 -93.29660999999999 z" stroke-linecap="round" />
</g>
<g transform="matrix(0.9208637341 0 0 0.9208637341 600 320)" id="ppr4KaATAmBSfngXbhi9-"  >
<g style=""   >
		<g transform="matrix(1.0269030524 0 0 1.0269030524 0 -132.1831591993)" id="0kp05TiN46PO3XKmcB8Ad"  >
<radialGradient id="SVGID_32" gradientUnits="userSpaceOnUse" gradientTransform="matrix(1 0 0 1 -121.75 -121.75)"  cx="41.86266489416093" cy="35.47141834543409" r="252.61420678193448" fx="41.86266489416093" fy="35.47141834543409">
<stop offset="0%" style="stop-color:rgb(54,41,255);stop-opacity: 1"/>
<stop offset="100%" style="stop-color:rgb(180,44,255);stop-opacity: 1"/>
</radialGradient>
<path style="stroke: rgb(227,179,111); stroke-width: 0; stroke-dasharray: none; stroke-linecap: butt; stroke-dashoffset: 0; stroke-linejoin: miter; stroke-miterlimit: 4; fill: url(#SVGID_32); fill-rule: nonzero; opacity: 1;" vector-effect="non-scaling-stroke"  transform=" translate(0, 0)" d="M 0 -121.75325 C 67.20779 -121.75325 121.75325 -67.20779999999999 121.75325 0 C 121.75325 67.20779 67.20779999999999 121.75325 0 121.75325 C -67.20779 121.75325 -121.75325 67.20779999999999 -121.75325 0 C -121.75325 -67.20779 -67.20779999999999 -121.75325 0 -121.75325 z" stroke-linecap="round" />
</g>
		<g transform="matrix(1.9249815312 0 0 1.4174294254 0 135.200258822)" id="YhK4T9tLi7R8C8jEYgDAF"  >
<radialGradient id="SVGID_39" gradientUnits="userSpaceOnUse" gradientTransform="matrix(1 0 0 1 -121.75 -86.076298125)"  cx="41.86266489416093" cy="35.47141834543409" r="252.61420678193448" fx="41.86266489416093" fy="35.47141834543409">
<stop offset="0%" style="stop-color:rgb(54,41,255);stop-opacity: 1"/>
<stop offset="100%" style="stop-color:rgb(180,44,255);stop-opacity: 1"/>
</radialGradient>
<path style="stroke: rgb(227,179,111); stroke-width: 0; stroke-dasharray: none; stroke-linecap: butt; stroke-dashoffset: 0; stroke-linejoin: miter; stroke-miterlimit: 4; fill: url(#SVGID_39); fill-rule: nonzero; opacity: 1;" vector-effect="non-scaling-stroke"  transform=" translate(0, 0)" d="M 0 -86.07955 C 67.20779 -86.07955 121.75325 -31.534099999999995 121.75325 35.6737 C 121.75325 102.88149 -121.75325 102.8815 -121.75325 35.6737 C -121.75325 -31.534090000000006 -67.20779999999999 -86.07955 0 -86.07955 z" stroke-linecap="round" />
</g>
</g>
</g>
<g transform="matrix(4.4983920445 0 0 -3.9808779158 22023.6340445801 2314.817390039)" id="oYxBmwZ_YJt4F9nxyX_6W"  >
<path style="stroke: rgb(181,132,137); stroke-width: 0; stroke-dasharray: none; stroke-linecap: butt; stroke-dashoffset: 0; stroke-linejoin: miter; stroke-miterlimit: 4; fill: rgb(0,0,0); fill-rule: nonzero; opacity: 1;"  transform=" translate(0, 0.000005)" d="M -71.42857 39.03733 L 0 -136.04071 L 71.42857 39.03733 L 0 136.04070000000002 z" stroke-linecap="round" />
</g>
</svg>