<?xml version="1.0" encoding="UTF-8" standalone="no" ?>
<!DOCTYPE svg PUBLIC "-//W3C//DTD SVG 1.1//EN" "http://www.w3.org/Graphics/SVG/1.1/DTD/svg11.dtd">
<svg xmlns="http://www.w3.org/2000/svg" xmlns:xlink="http://www.w3.org/1999/xlink" version="1.1" width="40" height="40" viewBox="0 0 640 640" xml:space="preserve">
<desc>Created with Fabric.js 5.3.0</desc>
<defs>
</defs>
<g transform="matrix(1.3964483815 0 0 1.3964483815 256.5761002449 194.1904032153)" id="1s2yP2Ux_n__cr3ZjggF6"  >
<path style="stroke: rgb(134,212,101); stroke-width: 0; stroke-dasharray: none; stroke-linecap: butt; stroke-dashoffset: 0; stroke-linejoin: miter; stroke-miterlimit: 4; fill: rgb(135,135,135); fill-rule: nonzero; opacity: 1;" vector-effect="non-scaling-stroke"  transform=" translate(0, 0)" d="M 0 -118.83746 C 65.59828 -118.83746 118.83746 -65.59827999999999 118.83746 0 C 118.83746 65.59828 65.59827999999999 118.83746 0 118.83746 C -65.59828 118.83746 -118.83746 65.59827999999999 -118.83746 0 C -118.83746 -65.59828 -65.59827999999999 -118.83746 0 -118.83746 z" stroke-linecap="round" />
</g>
<g transform="matrix(7.3221886371 0 0 5.3466832265 256.5761002449 401.2702808534)" id="B-GObxZDv4tUZBRYZ0_oX"  >
<path style="stroke: rgb(237,187,96); stroke-width: 0; stroke-dasharray: none; stroke-linecap: butt; stroke-dashoffset: 0; stroke-linejoin: miter; stroke-miterlimit: 4; fill: rgb(135,135,135); fill-rule: nonzero; opacity: 1;" vector-effect="non-scaling-stroke"  transform=" translate(0, 0)" d="M 0 -24.35307 C 19.01399 -24.35307 34.44564 -8.92142 34.44564 10.092569999999998 C 34.44564 29.106559999999998 -34.44564 29.106559999999998 -34.44564 10.092569999999998 C -34.44564 -8.921420000000001 -19.01399 -24.35307 0 -24.35307 z" stroke-linecap="round" />
</g>
<g transform="matrix(1.3964483814 0 0 1.3964483814 383.4239032242 274.4719727644)" id="r3VxfI2EWDOt4UdkP73AF"  >
<path style="stroke: rgb(134,212,101); stroke-width: 0; stroke-dasharray: none; stroke-linecap: butt; stroke-dashoffset: 0; stroke-linejoin: miter; stroke-miterlimit: 4; fill: rgb(202,202,202); fill-rule: nonzero; opacity: 1;" vector-effect="non-scaling-stroke"  transform=" translate(0, 0)" d="M 0 -118.83746 C 65.59828 -118.83746 118.83746 -65.59827999999999 118.83746 0 C 118.83746 65.59828 65.59827999999999 118.83746 0 118.83746 C -65.59828 118.83746 -118.83746 65.59827999999999 -118.83746 0 C -118.83746 -65.59828 -65.59827999999999 -118.83746 0 -118.83746 z" stroke-linecap="round" />
</g>
<g transform="matrix(7.322188637 0 0 5.3466832265 383.4239032242 481.5518504025)" id="mxMFSchS-o8LYnJ85sLgJ"  >
<path style="stroke: rgb(237,187,96); stroke-width: 0; stroke-dasharray: none; stroke-linecap: butt; stroke-dashoffset: 0; stroke-linejoin: miter; stroke-miterlimit: 4; fill: rgb(202,202,202); fill-rule: nonzero; opacity: 1;" vector-effect="non-scaling-stroke"  transform=" translate(0, 0)" d="M 0 -24.35307 C 19.01399 -24.35307 34.44564 -8.92142 34.44564 10.092569999999998 C 34.44564 29.106559999999998 -34.44564 29.106559999999998 -34.44564 10.092569999999998 C -34.44564 -8.921420000000001 -19.01399 -24.35307 0 -24.35307 z" stroke-linecap="round" />
</g>
</svg>