<?xml version="1.0" encoding="UTF-8" standalone="no" ?>
<!DOCTYPE svg PUBLIC "-//W3C//DTD SVG 1.1//EN" "http://www.w3.org/Graphics/SVG/1.1/DTD/svg11.dtd">
<svg xmlns="http://www.w3.org/2000/svg" xmlns:xlink="http://www.w3.org/1999/xlink" version="1.1" width="50" height="50" viewBox="0 0 50 50" xml:space="preserve">
<desc>Created with Fabric.js 5.3.0</desc>
<defs>
</defs>
<g transform="matrix(-0.0891783203 -0.0891783203 0.0891783203 -0.0891783203 66.6425074284 19.3394047163)" id="qWEFQr_q1hG9itGRPOBDG"  >
<path style="stroke: none; stroke-width: 1; stroke-dasharray: none; stroke-linecap: butt; stroke-dashoffset: 0; stroke-linejoin: miter; stroke-miterlimit: 4; fill: rgb(179,181,179); fill-rule: nonzero; opacity: 1;"  transform=" translate(-40, -40)" d="M 0 30.56 L 40 0 L 80 30.56 L 64.72 80 L 15.28 80 L 0 30.56 z" stroke-linecap="round" />
</g>
<g transform="matrix(7.6359473453 0 0 1.1729565815 25 9.8875838269)" id="fzeVj-Ey9IWXoPmqb2AVh"  >
<path style="stroke: rgb(131,102,209); stroke-width: 0; stroke-dasharray: none; stroke-linecap: butt; stroke-dashoffset: 0; stroke-linejoin: miter; stroke-miterlimit: 4; fill: rgb(255,255,255); fill-rule: nonzero; opacity: 1;"  transform=" translate(0, 0)" d="M -3.22997 -1.85961 C -3.22997 -2.61644 -3.1357299999999997 -3.22997 -3.0194699999999997 -3.22997 L 3.01948 -3.22997 L 3.01948 -3.22997 C 3.13574 -3.22997 3.2299800000000003 -2.61644 3.2299800000000003 -1.8596099999999998 L 3.2299800000000003 1.8596100000000002 L 3.2299800000000003 1.8596100000000002 C 3.2299800000000003 2.6164400000000003 3.13574 3.2299700000000002 3.01948 3.2299700000000002 L -3.0194699999999997 3.2299700000000002 L -3.0194699999999997 3.2299700000000002 C -3.1357299999999997 3.2299700000000002 -3.22997 2.6164400000000003 -3.22997 1.8596100000000002 z" stroke-linecap="round" />
</g>
<g transform="matrix(7.6359473453 0 0 1.1729565815 24.9999935874 25.0000024399)" id="4R2cf-aebaznftN-dsoPN"  >
<path style="stroke: rgb(131,102,209); stroke-width: 0; stroke-dasharray: none; stroke-linecap: butt; stroke-dashoffset: 0; stroke-linejoin: miter; stroke-miterlimit: 4; fill: rgb(255,255,255); fill-rule: nonzero; opacity: 1;"  transform=" translate(0, 0)" d="M -3.22997 -1.85961 C -3.22997 -2.61644 -3.1357299999999997 -3.22997 -3.0194699999999997 -3.22997 L 3.01948 -3.22997 L 3.01948 -3.22997 C 3.13574 -3.22997 3.2299800000000003 -2.61644 3.2299800000000003 -1.8596099999999998 L 3.2299800000000003 1.8596100000000002 L 3.2299800000000003 1.8596100000000002 C 3.2299800000000003 2.6164400000000003 3.13574 3.2299700000000002 3.01948 3.2299700000000002 L -3.0194699999999997 3.2299700000000002 L -3.0194699999999997 3.2299700000000002 C -3.1357299999999997 3.2299700000000002 -3.22997 2.6164400000000003 -3.22997 1.8596100000000002 z" stroke-linecap="round" />
</g>
<g transform="matrix(7.6359473453 0 0 1.1729565815 25.0000064126 40.1124210528)" id="uWQhzX732vYnXMPyVfl28"  >
<path style="stroke: rgb(131,102,209); stroke-width: 0; stroke-dasharray: none; stroke-linecap: butt; stroke-dashoffset: 0; stroke-linejoin: miter; stroke-miterlimit: 4; fill: rgb(255,255,255); fill-rule: nonzero; opacity: 1;"  transform=" translate(0, 0)" d="M -3.22997 -1.85961 C -3.22997 -2.61644 -3.1357299999999997 -3.22997 -3.0194699999999997 -3.22997 L 3.01948 -3.22997 L 3.01948 -3.22997 C 3.13574 -3.22997 3.2299800000000003 -2.61644 3.2299800000000003 -1.8596099999999998 L 3.2299800000000003 1.8596100000000002 L 3.2299800000000003 1.8596100000000002 C 3.2299800000000003 2.6164400000000003 3.13574 3.2299700000000002 3.01948 3.2299700000000002 L -3.0194699999999997 3.2299700000000002 L -3.0194699999999997 3.2299700000000002 C -3.1357299999999997 3.2299700000000002 -3.22997 2.6164400000000003 -3.22997 1.8596100000000002 z" stroke-linecap="round" />
</g>
</svg>