<?xml version="1.0" encoding="UTF-8" standalone="no" ?>
<!DOCTYPE svg PUBLIC "-//W3C//DTD SVG 1.1//EN" "http://www.w3.org/Graphics/SVG/1.1/DTD/svg11.dtd">
<svg xmlns="http://www.w3.org/2000/svg" xmlns:xlink="http://www.w3.org/1999/xlink" version="1.1" width="50" height="50" viewBox="0 0 50 50" xml:space="preserve">
<desc>Created with Fabric.js 5.3.0</desc>
<defs>
</defs>
<g transform="matrix(4.9240307361 0 0 4.9240307361 25 13.4710949061)" id="8RRceq16Wv3j21KhvzP4L"  >
<path style="stroke: rgb(85,24,187); stroke-width: 0; stroke-dasharray: none; stroke-linecap: butt; stroke-dashoffset: 0; stroke-linejoin: miter; stroke-miterlimit: 4; fill: rgb(255,255,255); fill-rule: nonzero; opacity: 1;"  transform=" translate(0, 0)" d="M 0 -2.69107 C 1.48547 -2.69107 2.69107 -1.4854699999999998 2.69107 0 C 2.69107 1.48547 1.4854699999999998 2.69107 0 2.69107 C -1.48547 2.69107 -2.69107 1.4854699999999998 -2.69107 0 C -2.69107 -1.48547 -1.4854699999999998 -2.69107 0 -2.69107 z" stroke-linecap="round" />
</g>
<g transform="matrix(8.9763171437 0 0 5.2960653478 25 39.7035889885)" id="S6Gehhd1hR1u3pnvvhTof"  >
<path style="stroke: rgb(85,24,187); stroke-width: 0; stroke-dasharray: none; stroke-linecap: butt; stroke-dashoffset: 0; stroke-linejoin: miter; stroke-miterlimit: 4; fill: rgb(255,255,255); fill-rule: nonzero; opacity: 1;"  transform=" translate(0, 0)" d="M 0 -1.90258 C 1.48547 -1.90258 2.69107 -0.6969799999999999 2.69107 0.7884899999999999 C 2.69107 2.2739599999999998 -2.6910600000000002 2.2739599999999998 -2.6910600000000002 0.7884899999999999 C -2.6910600000000002 -0.6969800000000002 -1.4854600000000002 -1.90258 0.000009999999999621423 -1.90258 z" stroke-linecap="round" />
</g>
</svg>