<?xml version="1.0" encoding="UTF-8" standalone="no" ?>
<!DOCTYPE svg PUBLIC "-//W3C//DTD SVG 1.1//EN" "http://www.w3.org/Graphics/SVG/1.1/DTD/svg11.dtd">
<svg xmlns="http://www.w3.org/2000/svg" xmlns:xlink="http://www.w3.org/1999/xlink" version="1.1" width="1200" height="640" viewBox="0 0 1200 640" xml:space="preserve">
<desc>Created with Fabric.js 5.3.0</desc>
<defs>
</defs>
<g transform="matrix(11.6160714286 0 0 11.6160714286 22023.6340040458 -243.6669644377)" id="IU91sCFDLipgRCtRE_N_s"  >
<path style="stroke: rgb(163,136,149); stroke-width: 0; stroke-dasharray: none; stroke-linecap: butt; stroke-dashoffset: 0; stroke-linejoin: miter; stroke-miterlimit: 4; fill: rgb(0,0,0); fill-rule: nonzero; opacity: 1;"  transform=" translate(-137.19008, -137.19008)" d="M 137.19008 0 C 212.91899999999998 0 274.38016 61.46116 274.38016 137.19008 C 274.38016 212.91899999999998 212.91899999999998 274.38016 137.19008 274.38016 C 61.46115999999999 274.38016 0 212.91899999999998 0 137.19008 C 0 61.46115999999999 61.46116 0 137.19008 0 z" stroke-linecap="round" />
</g>
<g transform="matrix(2.2211860362 0 0 1.1871442878 600 320)" id="9DQ7Fw_FkdvdiujE7Sm1f"  >
<linearGradient id="SVGID_31" gradientUnits="userSpaceOnUse" gradientTransform="matrix(1 0 0 1 -272.15 -272.15)"  x1="0" y1="5.684341886080802e-14" x2="544.3038021070263" y2="544.3038021070263">
<stop offset="0%" style="stop-color:rgb(77,77,77);stop-opacity: 1"/>
<stop offset="100%" style="stop-color:rgb(0,0,0);stop-opacity: 1"/>
</linearGradient>
<path style="stroke: rgb(195,70,138); stroke-width: 0; stroke-dasharray: none; stroke-linecap: butt; stroke-dashoffset: 0; stroke-linejoin: miter; stroke-miterlimit: 4; fill: url(#SVGID_31); fill-rule: nonzero; opacity: 1;" vector-effect="non-scaling-stroke"  transform=" translate(0, 0)" d="M -272.1519 -272.1519 L 272.1519 -272.1519 L 272.1519 272.1519 L -272.1519 272.1519 z" stroke-linecap="round" />
</g>
<g transform="matrix(20.9248791289 0 0 20.9248791289 22023.6340445801 3627.5770183446)" id="UuMF3AoBXE-ZRnAE0qufu"  >
<path style="stroke: rgb(163,136,149); stroke-width: 0; stroke-dasharray: none; stroke-linecap: butt; stroke-dashoffset: 0; stroke-linejoin: miter; stroke-miterlimit: 4; fill: rgb(0,0,0); fill-rule: nonzero; opacity: 1;"  transform=" translate(0, -0.0000043818)" d="M -43.94085 -93.29662 C -30.14414 -97.96314000000001 0 -18.016760000000005 0 -18.016760000000005 C 0 -18.016760000000005 30.69218 -97.86840000000001 44.70758 -93.03474 C 98.50799 -74.47994 137.19008 -23.38158 137.19008 36.696560000000005 C 137.19008 112.42548000000001 -137.19008 112.42548000000001 -137.19008 36.696560000000005 C -137.19008 -23.666589999999992 -98.14008999999999 -74.96455999999999 -43.94085 -93.29660999999999 z" stroke-linecap="round" />
</g>
<g transform="matrix(4.4983920445 0 0 -3.9808779158 22023.6340445801 2314.817390039)" id="oYxBmwZ_YJt4F9nxyX_6W"  >
<path style="stroke: rgb(181,132,137); stroke-width: 0; stroke-dasharray: none; stroke-linecap: butt; stroke-dashoffset: 0; stroke-linejoin: miter; stroke-miterlimit: 4; fill: rgb(0,0,0); fill-rule: nonzero; opacity: 1;"  transform=" translate(0, 0.000005)" d="M -71.42857 39.03733 L 0 -136.04071 L 71.42857 39.03733 L 0 136.04070000000002 z" stroke-linecap="round" />
</g>
<g transform="matrix(1.045321248 0 0 1.045321248 600 320)" id="jK4DLohPqQmQ5GkfspQ8e"  >
<linearGradient id="SVGID_484" gradientUnits="userSpaceOnUse" gradientTransform="matrix(1 0 0 1 -249.6124 -247.4540825)"  x1="8.526512829121202e-14" y1="-5.684341886080802e-14" x2="499.2248000000003" y2="494.90816500000017">
<stop offset="0%" style="stop-color:#3629FF;stop-opacity: 1"/>
<stop offset="100%" style="stop-color:#B42CFF;stop-opacity: 1"/>
</linearGradient>
<path style="stroke: rgb(255,255,255); stroke-width: 0; stroke-dasharray: none; stroke-linecap: butt; stroke-dashoffset: 0; stroke-linejoin: miter; stroke-miterlimit: 4; fill: url(#SVGID_484); fill-rule: nonzero; opacity: 1;" vector-effect="non-scaling-stroke"  transform=" translate(0, 0)" d="M 8.59589 244.10238 C 3.7365700000000004 248.57132000000001 -3.7365499999999994 248.57132000000001 -8.595869999999998 244.10238 L -8.595869999999998 244.10238 L -8.595869999999998 244.10238 C -133.62024 129.12194 -218.15641 -23.170260000000013 -249.61239999999998 -190.08973999999998 L -249.61239999999998 -190.08973999999998 C -249.61239999999998 -190.08973999999998 -194.71078999999997 -196.72514999999999 -132.30768999999998 -211.06622999999996 C -69.90458999999998 -225.40731999999997 2.842170943040401e-14 -247.45407999999998 2.842170943040401e-14 -247.45407999999998 C 2.842170943040401e-14 -247.45407999999998 69.90459000000003 -225.40731999999997 132.30769000000004 -211.06622999999996 C 194.71079000000003 -196.72513999999995 249.61240000000004 -190.08973999999995 249.61240000000004 -190.08973999999995 L 249.61240000000004 -190.08973999999995 L 249.61240000000004 -190.08973999999995 C 218.15641000000005 -23.170249999999953 133.62025000000006 129.12195000000003 8.595870000000048 244.10238000000004 z" stroke-linecap="round" />
</g>
</svg>