<?xml version="1.0" encoding="UTF-8" standalone="no" ?>
<!DOCTYPE svg PUBLIC "-//W3C//DTD SVG 1.1//EN" "http://www.w3.org/Graphics/SVG/1.1/DTD/svg11.dtd">
<svg xmlns="http://www.w3.org/2000/svg" xmlns:xlink="http://www.w3.org/1999/xlink" version="1.1" width="50" height="50" viewBox="0 0 50 50" xml:space="preserve">
<desc>Created with Fabric.js 5.3.0</desc>
<defs>
</defs>
<g transform="matrix(5.1266827768 0 0 3.7596463932 26.1084522009 36.3023255814)" id="Q2At8osKkszdoQFwzumzm"  >
<path style="stroke: rgb(230,116,192); stroke-width: 0; stroke-dasharray: none; stroke-linecap: butt; stroke-dashoffset: 0; stroke-linejoin: miter; stroke-miterlimit: 4; fill: rgb(255,255,255); fill-rule: nonzero; opacity: 1;"  transform=" translate(0, 0)" d="M -4.56685 0.49724 L -2.0665799999999996 0.49724 L -2.0665799999999996 0.49724 C -1.8713999999999997 0.49724 -1.7131699999999996 0.28148 -1.7131699999999996 0.01533000000000001 L -1.7131699999999996 -0.12445999999999999 L -1.7131699999999996 -0.12445999999999999 C -1.7131699999999996 -0.21459999999999999 -1.7395199999999997 -0.30101999999999995 -1.7863799999999996 -0.3646 C -1.8332399999999995 -0.42818 -1.8967499999999997 -0.46366999999999997 -1.9628499999999995 -0.46321 C -2.7233799999999997 -0.458 -4.296209999999999 -0.42294 -4.26744 -0.48909 C -3.55124 -2.1359000000000004 -1.9093799999999996 -3.28836 0 -3.28836 C 2.56744 -3.28836 4.65116 -1.20464 4.65116 1.3628 C 4.65116 3.93024 -4.65117 3.93024 -4.65117 1.3628 C -4.65117 1.0600100000000001 -4.56685 0.49724999999999997 -4.56685 0.49724999999999997 z" stroke-linecap="round" />
</g>
<g transform="matrix(1.7512917673 0 0 0.39 8.8605506855 36.3023255814)" id="etjjNiu-h1lLE8iuf1UdD"  >
<path style="stroke: rgb(255,255,255); stroke-width: 1; stroke-dasharray: none; stroke-linecap: butt; stroke-dashoffset: 0; stroke-linejoin: miter; stroke-miterlimit: 4; fill: none; fill-rule: nonzero; opacity: 1;" vector-effect="non-scaling-stroke"  transform=" translate(0, 0)" d="M -4.65116 -0.24693 C -4.65116 -2.6793199999999997 -4.21204 -4.65117 -3.67037 -4.65117 L 3.67037 -4.65117 L 3.67037 -4.65117 C 4.2120500000000005 -4.65117 4.65116 -2.6793299999999993 4.65116 -0.24692999999999987 L 4.65116 0.24692000000000014 L 4.65116 0.24692000000000014 C 4.65116 2.67931 4.21204 4.65116 3.67037 4.65116 L -3.67037 4.65116 L -3.67037 4.65116 C -4.2120500000000005 4.65116 -4.65116 2.6793199999999997 -4.65116 0.24692000000000025 z" stroke-linecap="round" />
</g>
<g transform="matrix(3.01 0 0 3.01 26.1084522009 15.3345581395)" id="C_B3gLBMkahCEvU67PkNh"  >
<path style="stroke: rgb(230,116,192); stroke-width: 0; stroke-dasharray: none; stroke-linecap: butt; stroke-dashoffset: 0; stroke-linejoin: miter; stroke-miterlimit: 4; fill: rgb(255,255,255); fill-rule: nonzero; opacity: 1;"  transform=" translate(0, 0)" d="M 0 -4.65116 C 2.56744 -4.65116 4.65116 -2.56744 4.65116 0 C 4.65116 2.56744 2.56744 4.65116 0 4.65116 C -2.56744 4.65116 -4.65116 2.56744 -4.65116 0 C -4.65116 -2.56744 -2.56744 -4.65116 0 -4.65116 z" stroke-linecap="round" />
</g>
</svg>