<?xml version="1.0" encoding="UTF-8" standalone="no" ?>
<!DOCTYPE svg PUBLIC "-//W3C//DTD SVG 1.1//EN" "http://www.w3.org/Graphics/SVG/1.1/DTD/svg11.dtd">
<svg xmlns="http://www.w3.org/2000/svg" xmlns:xlink="http://www.w3.org/1999/xlink" version="1.1" width="100" height="114.286" viewBox="0 0 100 114.286" xml:space="preserve">
<desc>Created with Fabric.js 5.3.0</desc>
<defs>
</defs>
<g transform="matrix(0.279083344 0 0 0.279083344 50 57.143)" id="pJAZgXd4muuhKd-E_eHYg"  >
<g style=""   >
		<g transform="matrix(1 0 0 1 0 0)" id="I0XhYVtyO-DSAPtgI5OVW"  >
<g style=""   >
		<g transform="matrix(4.365 0 0 4.7304895926 17.863975383 -28.6185406573)" id="j_Sz0nR0j13iLaiALlqbk"  >
<path style="stroke: rgb(86,86,86); stroke-width: 1; stroke-dasharray: none; stroke-linecap: butt; stroke-dashoffset: 0; stroke-linejoin: miter; stroke-miterlimit: 4; fill: rgb(179,179,179); fill-rule: nonzero; opacity: 1;"  transform=" translate(0, 0)" d="M 0 -34.44797 C 19.01399 -34.44797 34.44564 -19.01632 34.44564 -0.0023300000000006094 C 34.44564 19.01166 34.638819999999996 34.12766 0 34.44331 C -34.63882 34.758959999999995 -34.44564 19.01166 -34.44564 -0.0023300000000006094 C -34.44564 -19.01632 -19.01399 -34.44797 0 -34.44797 z" stroke-linecap="round" />
</g>
		<g transform="matrix(0.565 0 0 0.655 -62.7788141688 -89.7414991988)" id="PCRv9vBx53mdFPQdFRlqx"  >
<path style="stroke: rgb(234,17,47); stroke-width: 0; stroke-dasharray: none; stroke-linecap: butt; stroke-dashoffset: 0; stroke-linejoin: miter; stroke-miterlimit: 4; fill: rgb(96,96,96); fill-rule: nonzero; opacity: 1;"  transform=" translate(0, 0)" d="M 0 -34.44564 C 19.01399 -34.44564 34.44564 -19.01399 34.44564 0 C 34.44564 19.01399 19.01399 34.44564 0 34.44564 C -19.01399 34.44564 -34.44564 19.01399 -34.44564 0 C -34.44564 -19.01399 -19.01399 -34.44564 0 -34.44564 z" stroke-linecap="round" />
</g>
		<g transform="matrix(0.0487812842 1.3969132104 -1.6194303589 0.0565517543 -8.3220405133 -1.8678926754)" id="5ZMjtA5FTs_TWfNx5-jPg"  >
<path style="stroke: rgb(234,17,47); stroke-width: 0; stroke-dasharray: none; stroke-linecap: butt; stroke-dashoffset: 0; stroke-linejoin: miter; stroke-miterlimit: 4; fill: rgb(96,96,96); fill-rule: nonzero; opacity: 1;"  transform=" translate(0, 0)" d="M 0 -34.44564 C 19.01399 -34.44564 34.44564 -19.01399 34.44564 0 C 34.44564 19.01399 19.01399 34.44564 0 34.44564 C -19.01399 34.44564 -34.44564 19.01399 -34.44564 0 C -34.44564 -19.01399 -19.01399 -34.44564 0 -34.44564 z" stroke-linecap="round" />
</g>
		<g transform="matrix(0.7431448255 0.6691306064 -0.6691306064 0.7431448255 -71.3495119275 2.6979226031)" id="cEnhF7V38yljv4ZaqKDBT"  >
<g style=""   >
		<g transform="matrix(1 0 0 1 0 0)" id="qHRfnB-jjTc66-3Jdow5s"  >
<path style="stroke: rgb(86,86,86); stroke-width: 0; stroke-dasharray: none; stroke-linecap: butt; stroke-dashoffset: 0; stroke-linejoin: miter; stroke-miterlimit: 4; fill: rgb(179,179,179); fill-rule: nonzero; opacity: 1;"  transform=" translate(6.96e-7, 0.0000026392)" d="M -36.30548 31.29384 C -36.30548 31.29384 -37.793580000000006 -30.086900000000004 -0.5911900000000045 -31.277379999999997 C 36.61118999999999 -32.467859999999995 36.31357 31.29384 36.31357 31.29384" stroke-linecap="round" />
</g>
		<g transform="matrix(1 0 0 1 0 0)" id="2zfUkdUUx56SldajYKeob"  >
<path style="stroke: rgb(86,86,86); stroke-width: 4; stroke-dasharray: none; stroke-linecap: butt; stroke-dashoffset: 0; stroke-linejoin: miter; stroke-miterlimit: 4; fill: rgb(255,255,255); fill-opacity: 0; fill-rule: nonzero; opacity: 1;"  transform=" translate(6.96e-7, 0.0000026392)" d="M -36.30548 31.29384 C -36.30548 31.29384 -37.793580000000006 -30.086900000000004 -0.5911900000000045 -31.277379999999997 C 36.61118999999999 -32.467859999999995 36.31357 31.29384 36.31357 31.29384" stroke-linecap="round" />
</g>
</g>
</g>
		<g transform="matrix(0.565 0 0 0.655 58.4698402984 -78.0299814377)" id="2K5vQ-vSKw6-4HrdnOtkV"  >
<path style="stroke: rgb(234,17,47); stroke-width: 0; stroke-dasharray: none; stroke-linecap: butt; stroke-dashoffset: 0; stroke-linejoin: miter; stroke-miterlimit: 4; fill: rgb(96,96,96); fill-rule: nonzero; opacity: 1;"  transform=" translate(0, 0)" d="M 0 -34.44564 C 19.01399 -34.44564 34.44564 -19.01399 34.44564 0 C 34.44564 19.01399 19.01399 34.44564 0 34.44564 C -19.01399 34.44564 -34.44564 19.01399 -34.44564 0 C -34.44564 -19.01399 -19.01399 -34.44564 0 -34.44564 z" stroke-linecap="round" />
</g>
		<g transform="matrix(-1.2291620803 0.2612664655 -0.2612664655 -1.2291620803 75.6767241953 143.0059626959)" id="wCZLgJ1_Qu167u_FzAu7P"  >
<g style=""   >
		<g transform="matrix(1 0 0 1 0 0)" id="VWwdjtSqKioTXdLrsHcfG"  >
<path style="stroke: rgb(86,86,86); stroke-width: 0; stroke-dasharray: none; stroke-linecap: butt; stroke-dashoffset: 0; stroke-linejoin: miter; stroke-miterlimit: 4; fill: rgb(179,179,179); fill-rule: nonzero; opacity: 1;"  transform=" translate(6.96e-7, 0.0000026392)" d="M -36.30548 31.29384 C -36.30548 31.29384 -37.793580000000006 -30.086900000000004 -0.5911900000000045 -31.277379999999997 C 36.61118999999999 -32.467859999999995 36.31357 31.29384 36.31357 31.29384" stroke-linecap="round" />
</g>
		<g transform="matrix(1 0 0 1 0 0)" id="NMGkywLG69174_YEobjOu"  >
<path style="stroke: rgb(86,86,86); stroke-width: 4; stroke-dasharray: none; stroke-linecap: butt; stroke-dashoffset: 0; stroke-linejoin: miter; stroke-miterlimit: 4; fill: rgb(255,255,255); fill-opacity: 0; fill-rule: nonzero; opacity: 1;"  transform=" translate(6.96e-7, 0.0000026392)" d="M -36.30548 31.29384 C -36.30548 31.29384 -37.793580000000006 -30.086900000000004 -0.5911900000000045 -31.277379999999997 C 36.61118999999999 -32.467859999999995 36.31357 31.29384 36.31357 31.29384" stroke-linecap="round" />
</g>
</g>
</g>
		<g transform="matrix(-1.0166287901 -0.7386240512 0.7386240512 -1.0166287901 -106.8594129782 126.2732894285)" id="p0LQSCwET4cz5DF441u9Y"  >
<g style=""   >
		<g transform="matrix(1 0 0 1 0 0)" id="Nq-Bk6hLbjfMl3KYD1GsM"  >
<path style="stroke: rgb(86,86,86); stroke-width: 0; stroke-dasharray: none; stroke-linecap: butt; stroke-dashoffset: 0; stroke-linejoin: miter; stroke-miterlimit: 4; fill: rgb(179,179,179); fill-rule: nonzero; opacity: 1;"  transform=" translate(6.96e-7, 0.0000026392)" d="M -36.30548 31.29384 C -36.30548 31.29384 -37.793580000000006 -30.086900000000004 -0.5911900000000045 -31.277379999999997 C 36.61118999999999 -32.467859999999995 36.31357 31.29384 36.31357 31.29384" stroke-linecap="round" />
</g>
		<g transform="matrix(1 0 0 1 0 0)" id="6zgb6Cp5bnX8puJNBRqTi"  >
<path style="stroke: rgb(86,86,86); stroke-width: 4; stroke-dasharray: none; stroke-linecap: butt; stroke-dashoffset: 0; stroke-linejoin: miter; stroke-miterlimit: 4; fill: rgb(255,255,255); fill-opacity: 0; fill-rule: nonzero; opacity: 1;"  transform=" translate(6.96e-7, 0.0000026392)" d="M -36.30548 31.29384 C -36.30548 31.29384 -37.793580000000006 -30.086900000000004 -0.5911900000000045 -31.277379999999997 C 36.61118999999999 -32.467859999999995 36.31357 31.29384 36.31357 31.29384" stroke-linecap="round" />
</g>
</g>
</g>
</g>
</g>
		<g transform="matrix(1.8644484691 -0.9913448358 0.4029857056 0.7579058817 -43.3170273012 12.3956756606)" id="TDAkUC6GB6La8bgAFr9Jv"  >
<path style="stroke: rgb(161,59,84); stroke-width: 0; stroke-dasharray: none; stroke-linecap: butt; stroke-dashoffset: 0; stroke-linejoin: miter; stroke-miterlimit: 4; fill: rgb(100,100,215); fill-rule: nonzero; opacity: 1;"  transform=" translate(0, 0)" d="M -34.44564 -15.8475 C -34.44564 -26.11897 -31.060809999999996 -34.44564 -26.885419999999996 -34.44564 L 26.885420000000003 -34.44564 L 26.885420000000003 -34.44564 C 31.060810000000004 -34.44564 34.445640000000004 -26.118969999999997 34.445640000000004 -15.847499999999997 L 34.445640000000004 15.847490000000004 L 34.445640000000004 15.847490000000004 C 34.445640000000004 26.118960000000005 31.060810000000004 34.44563000000001 26.885420000000003 34.44563000000001 L -34.44564 34.44563000000001 z" stroke-linecap="round" />
</g>
		<g transform="matrix(0.7071067812 -0.7071067812 0.7071067812 0.7071067812 22.1662685351 22.0155981596)" id="eHRviasy5xsmcKXW2Z8Od"  >
<g style=""   >
		<g transform="matrix(1 0 0 1 0 0)" id="lTI__yiGsmoGppL3Rn-4g"  >
<path style="stroke: rgb(86,86,86); stroke-width: 0; stroke-dasharray: none; stroke-linecap: butt; stroke-dashoffset: 0; stroke-linejoin: miter; stroke-miterlimit: 4; fill: rgb(179,179,179); fill-rule: nonzero; opacity: 1;"  transform=" translate(6.96e-7, 0.0000026392)" d="M -36.30548 31.29384 C -36.30548 31.29384 -37.793580000000006 -30.086900000000004 -0.5911900000000045 -31.277379999999997 C 36.61118999999999 -32.467859999999995 36.31357 31.29384 36.31357 31.29384" stroke-linecap="round" />
</g>
		<g transform="matrix(1 0 0 1 0 0)" id="zGQRYhqLCErzn7DaWpCCd"  >
<path style="stroke: rgb(86,86,86); stroke-width: 4; stroke-dasharray: none; stroke-linecap: butt; stroke-dashoffset: 0; stroke-linejoin: miter; stroke-miterlimit: 4; fill: rgb(255,255,255); fill-opacity: 0; fill-rule: nonzero; opacity: 1;"  transform=" translate(0, 0)" d="M -36.30548 31.29384 C -36.30548 31.29384 -37.793580000000006 -30.086900000000004 -0.5911900000000045 -31.277379999999997 C 36.61118999999999 -32.467859999999995 36.31357 31.29384 36.31357 31.29384" stroke-linecap="round" />
</g>
</g>
</g>
		<g transform="matrix(1 0 0 1 -24.3450413654 171.5681808173)" id="0leVg-am8DcRsw6794BWt"  >
<g style=""   >
		<g transform="matrix(0.1736999173 0 0 0.1736999173 28.1906912303 2.9217275123)" id="5JGZXndEEv3vZbW3W_a__"  >
<path style="stroke: rgb(86,86,86); stroke-width: 0; stroke-dasharray: none; stroke-linecap: butt; stroke-dashoffset: 0; stroke-linejoin: miter; stroke-miterlimit: 4; fill: rgb(86,86,86); fill-rule: nonzero; opacity: 1;"  transform=" translate(0, 0)" d="M 0 -28.73563 C 15.86207 -28.73563 28.73563 -15.862070000000001 28.73563 0 C 28.73563 15.86207 15.862070000000001 28.73563 0 28.73563 C -15.86207 28.73563 -28.73563 15.862070000000001 -28.73563 0 C -28.73563 -15.86207 -15.862070000000001 -28.73563 0 -28.73563 z" stroke-linecap="round" />
</g>
		<g transform="matrix(0.1710610253 0.0301626741 -0.0301626741 0.1710610253 -22.8203901504 4.9472830456)" id="LvZPxQ1QIckR93sxZe3Sw"  >
<path style="stroke: rgb(86,86,86); stroke-width: 0; stroke-dasharray: none; stroke-linecap: butt; stroke-dashoffset: 0; stroke-linejoin: miter; stroke-miterlimit: 4; fill: rgb(86,86,86); fill-rule: nonzero; opacity: 1;"  transform=" translate(0, 0)" d="M 0 -28.73563 C 15.86207 -28.73563 28.73563 -15.862070000000001 28.73563 0 C 28.73563 15.86207 15.862070000000001 28.73563 0 28.73563 C -15.86207 28.73563 -28.73563 15.862070000000001 -28.73563 0 C -28.73563 -15.86207 -15.862070000000001 -28.73563 0 -28.73563 z" stroke-linecap="round" />
</g>
		<g transform="matrix(-0.0973589087 -0.0608365982 0.0608365982 -0.0973589087 -1.3035057079 -1.6241203889)" id="Q2JWFw1WiealWbfzS4CoQ"  >
<path style="stroke: rgb(86,86,86); stroke-width: 0; stroke-dasharray: none; stroke-linecap: butt; stroke-dashoffset: 0; stroke-linejoin: miter; stroke-miterlimit: 4; fill: rgb(86,86,86); fill-rule: nonzero; opacity: 1;"  transform=" translate(0, 0)" d="M 0 -28.73563 C 15.86207 -28.73563 28.73563 -15.862070000000001 28.73563 0 C 28.73563 15.86207 15.862070000000001 28.73563 0 28.73563 C -15.86207 28.73563 -28.73563 15.862070000000001 -28.73563 0 C -28.73563 -15.86207 -15.862070000000001 -28.73563 0 -28.73563 z" stroke-linecap="round" />
</g>
		<g transform="matrix(-0.0552202858 -0.0345054642 0.0345054642 -0.0552202858 9.8743673012 16.851965898)" id="ggKHrcpr0Tch-vPmJ_i34"  >
<path style="stroke: rgb(86,86,86); stroke-width: 0; stroke-dasharray: none; stroke-linecap: butt; stroke-dashoffset: 0; stroke-linejoin: miter; stroke-miterlimit: 4; fill: rgb(86,86,86); fill-rule: nonzero; opacity: 1;"  transform=" translate(0, 0)" d="M 0 -28.73563 C 15.86207 -28.73563 28.73563 -15.862070000000001 28.73563 0 C 28.73563 15.86207 15.862070000000001 28.73563 0 28.73563 C -15.86207 28.73563 -28.73563 15.862070000000001 -28.73563 0 C -28.73563 -15.86207 -15.862070000000001 -28.73563 0 -28.73563 z" stroke-linecap="round" />
</g>
		<g transform="matrix(0.1020191915 0.017988736 -0.017988736 0.1020191915 -33.4273781982 -3.9873078176)" id="FAENRLR0b899u9GckYvI_"  >
<path style="stroke: rgb(86,86,86); stroke-width: 0; stroke-dasharray: none; stroke-linecap: butt; stroke-dashoffset: 0; stroke-linejoin: miter; stroke-miterlimit: 4; fill: rgb(86,86,86); fill-rule: nonzero; opacity: 1;"  transform=" translate(0, 0)" d="M 0 -28.73563 C 15.86207 -28.73563 28.73563 -15.862070000000001 28.73563 0 C 28.73563 15.86207 15.862070000000001 28.73563 0 28.73563 C -15.86207 28.73563 -28.73563 15.862070000000001 -28.73563 0 C -28.73563 -15.86207 -15.862070000000001 -28.73563 0 -28.73563 z" stroke-linecap="round" />
</g>
		<g transform="matrix(-0.0690510912 -0.0852709962 0.0852709962 -0.0690510912 -5.8493536091 -14.9957493094)" id="aCwcvlZWvKqalQnoR2r5T"  >
<path style="stroke: rgb(86,86,86); stroke-width: 0; stroke-dasharray: none; stroke-linecap: butt; stroke-dashoffset: 0; stroke-linejoin: miter; stroke-miterlimit: 4; fill: rgb(86,86,86); fill-rule: nonzero; opacity: 1;"  transform=" translate(0, 0)" d="M 0 -28.73563 C 15.86207 -28.73563 28.73563 -15.862070000000001 28.73563 0 C 28.73563 15.86207 15.862070000000001 28.73563 0 28.73563 C -15.86207 28.73563 -28.73563 15.862070000000001 -28.73563 0 C -28.73563 -15.86207 -15.862070000000001 -28.73563 0 -28.73563 z" stroke-linecap="round" />
</g>
		<g transform="matrix(0.0764313526 0 0 0.0764313526 34.6795786287 -3.3516944821)" id="WrXoZbVswMsuS0kNcj9ZY"  >
<path style="stroke: rgb(86,86,86); stroke-width: 0; stroke-dasharray: none; stroke-linecap: butt; stroke-dashoffset: 0; stroke-linejoin: miter; stroke-miterlimit: 4; fill: rgb(86,86,86); fill-rule: nonzero; opacity: 1;"  transform=" translate(0, 0)" d="M 0 -28.73563 C 15.86207 -28.73563 28.73563 -15.862070000000001 28.73563 0 C 28.73563 15.86207 15.862070000000001 28.73563 0 28.73563 C -15.86207 28.73563 -28.73563 15.862070000000001 -28.73563 0 C -28.73563 -15.86207 -15.862070000000001 -28.73563 0 -28.73563 z" stroke-linecap="round" />
</g>
		<g transform="matrix(0.108763749 0 0 0.108763749 28.7469614996 -7.4358114833)" id="lz_LCyJOKjPqNeztM5dR8"  >
<path style="stroke: rgb(86,86,86); stroke-width: 0; stroke-dasharray: none; stroke-linecap: butt; stroke-dashoffset: 0; stroke-linejoin: miter; stroke-miterlimit: 4; fill: rgb(86,86,86); fill-rule: nonzero; opacity: 1;"  transform=" translate(0, 0)" d="M 0 -28.73563 C 15.86207 -28.73563 28.73563 -15.862070000000001 28.73563 0 C 28.73563 15.86207 15.862070000000001 28.73563 0 28.73563 C -15.86207 28.73563 -28.73563 15.862070000000001 -28.73563 0 C -28.73563 -15.86207 -15.862070000000001 -28.73563 0 -28.73563 z" stroke-linecap="round" />
</g>
</g>
</g>
</g>
</g>
</svg>