<?xml version="1.0" encoding="UTF-8" standalone="no" ?>
<!DOCTYPE svg PUBLIC "-//W3C//DTD SVG 1.1//EN" "http://www.w3.org/Graphics/SVG/1.1/DTD/svg11.dtd">
<svg xmlns="http://www.w3.org/2000/svg" xmlns:xlink="http://www.w3.org/1999/xlink" version="1.1" width="20" height="20" viewBox="0 0 20 20" xml:space="preserve">
<desc>Created with Fabric.js 5.3.0</desc>
<defs>
</defs>
<g transform="matrix(1.1778886126 0 0 1.1778886126 10 10)" id="8O_yxZfgHP_w0kmadEK8_"  >
<g style=""   >
		<g transform="matrix(23.5087087224 0 0 23.5087087224 0 -3.8748947863)" id="hC2FkB8TPL2I6Wv-lZ_bU"  >
<path style="stroke: rgb(231,142,67); stroke-width: 0; stroke-dasharray: none; stroke-linecap: butt; stroke-dashoffset: 0; stroke-linejoin: miter; stroke-miterlimit: 4; fill: rgb(255,255,255); fill-rule: nonzero; opacity: 1;"  transform=" translate(0, 0)" d="M 0 -0.15501 C 0.08556 -0.15501 0.15501 -0.08557000000000001 0.15501 0 C 0.15501 0.08556 0.08557000000000001 0.15501 0 0.15501 C -0.08556 0.15501 -0.15501 0.08557000000000001 -0.15501 0 C -0.15501 -0.08556 -0.08557000000000001 -0.15501 0 -0.15501 z" stroke-linecap="round" />
</g>
		<g transform="matrix(48.014878035 0 0 33.1822848786 0 3.8824641996)" id="8n-b1NhnzMUI21ZDYALIf"  >
<path style="stroke: rgb(231,142,67); stroke-width: 0; stroke-dasharray: none; stroke-linecap: butt; stroke-dashoffset: 0; stroke-linejoin: miter; stroke-miterlimit: 4; fill: rgb(255,255,255); fill-rule: nonzero; opacity: 1;"  transform=" translate(0, 0)" d="M 0 -0.10959 C 0.08556 -0.10959 0.15501 -0.040150000000000005 0.15501 0.04542 C 0.15501 0.13097999999999999 -0.155 0.13097999999999999 -0.155 0.04542 C -0.155 -0.040139999999999995 -0.08556 -0.10959 0.000010000000000010001 -0.10959 z" stroke-linecap="round" />
</g>
</g>
</g>
<g transform="matrix(2.365 0 0 2.365 30.8705707288 31.076727532)" id="BEDCWo3vn9NVgg5BrBvTF"  >
<path style="stroke: rgb(231,142,67); stroke-width: 0; stroke-dasharray: none; stroke-linecap: butt; stroke-dashoffset: 0; stroke-linejoin: miter; stroke-miterlimit: 4; fill: rgb(0,0,0); fill-rule: nonzero; opacity: 1;"  transform=" translate(0, 0)" d="M 0 -0.15501 C 0.08556 -0.15501 0.15501 -0.08557000000000001 0.15501 0 C 0.15501 0.08556 0.08557000000000001 0.15501 0 0.15501 C -0.08556 0.15501 -0.15501 0.08557000000000001 -0.15501 0 C -0.15501 -0.08556 -0.08557000000000001 -0.15501 0 -0.15501 z" stroke-linecap="round" />
</g>
</svg>