<?xml version="1.0" encoding="UTF-8" standalone="no" ?>
<!DOCTYPE svg PUBLIC "-//W3C//DTD SVG 1.1//EN" "http://www.w3.org/Graphics/SVG/1.1/DTD/svg11.dtd">
<svg xmlns="http://www.w3.org/2000/svg" xmlns:xlink="http://www.w3.org/1999/xlink" version="1.1" width="50" height="50" viewBox="0 0 50 50" xml:space="preserve">
<desc>Created with Fabric.js 5.3.0</desc>
<defs>
</defs>
<g transform="matrix(0.6938197426 0 0 1.0517191412 25 25)" id="V3sAixRfbSQXyuS2tyBoM"  >
<path style="stroke: rgb(255,255,255); stroke-width: 2; stroke-dasharray: none; stroke-linecap: butt; stroke-dashoffset: 0; stroke-linejoin: miter; stroke-miterlimit: 4; fill: none; fill-rule: nonzero; opacity: 1;" vector-effect="non-scaling-stroke"  transform=" translate(-0.000005, -0.000005)" d="M -18.04651 -12.99552 C -18.04651 -15.7851 -14.618580000000001 -18.04651 -10.390020000000002 -18.04651 L 10.390029999999998 -18.04651 L 10.390029999999998 -18.04651 C 14.618589999999998 -18.04651 18.046519999999997 -15.785110000000001 18.046519999999997 -12.995520000000003 L 18.046519999999997 12.995529999999999 L 18.046519999999997 12.995529999999999 C 18.046519999999997 15.78511 14.618589999999998 18.046519999999997 10.390029999999998 18.046519999999997 L -10.390020000000002 18.046519999999997 L -10.390020000000002 18.046519999999997 C -14.618580000000001 18.046519999999997 -18.04651 15.785119999999997 -18.04651 12.995529999999999 z" stroke-linecap="round" />
</g>
<g transform="matrix(0.6938197426 0 0 1.0517191412 29.6976744186 27.4748099796)" id="GPc2x7TGzE-naSJCCVoN3"  >
<path style="stroke: rgb(100,100,215); stroke-width: 0; stroke-dasharray: none; stroke-linecap: butt; stroke-dashoffset: 0; stroke-linejoin: miter; stroke-miterlimit: 4; fill: rgb(255,255,255); fill-rule: nonzero; opacity: 1;" vector-effect="non-scaling-stroke"  transform=" translate(0, 0)" d="M -11.27577 2.99067 L -11.27577 -1.0781199999999997 L -7.70926 1.9426700000000001 L -7.70926 2.3823600000000003 L -7.70926 2.3823600000000003 C -7.70926 3.16203 -6.75118 3.7940700000000005 -5.569329999999999 3.7940700000000005 L -5.519739999999999 3.7940700000000005 L -5.519739999999999 3.7940700000000005 C -4.359479999999999 3.7940700000000005 -3.418899999999999 3.1735700000000007 -3.418899999999999 2.4081400000000004 L -3.418899999999999 2.4081400000000004 L -3.418899999999999 2.4081400000000004 C -3.418899999999999 1.6104000000000003 -4.399179999999999 0.9637100000000003 -5.608419999999999 0.9637100000000003 L -5.608419999999999 0.9637100000000003 L -5.608419999999999 0.9637100000000003 C -6.768679999999999 0.9637100000000003 -7.709259999999999 1.5842100000000003 -7.709259999999999 2.3496400000000004 L -7.709259999999999 2.7012700000000005 L -11.275769999999998 -0.3261699999999994 L -11.275769999999998 -10.96604 L -11.275769999999998 -10.96604 C -11.275769999999998 -13.266779999999999 -9.306349999999998 -15.37027 -6.187839999999998 -16.40032 L 3.038280000000002 -19.44773 L 3.038280000000002 -19.44773 C 4.802140000000002 -20.03034 6.897560000000002 -19.96871 8.575840000000003 -19.28487 C 10.254110000000003 -18.60103 11.275780000000003 -17.39254 11.275780000000003 -16.09122 L 11.275780000000003 11.642119999999998 L 11.275780000000003 11.642119999999998 C 11.275780000000003 14.081739999999998 8.993430000000004 16.26824 5.538590000000003 17.138379999999998 L -4.324939999999998 19.622619999999998 L -4.324939999999998 19.622619999999998 C -5.899819999999998 20.01927 -7.669699999999998 19.879469999999998 -9.058099999999998 19.248739999999998 C -10.446509999999998 18.618009999999998 -11.275759999999998 17.57708 -11.275759999999998 16.464989999999997 z" stroke-linecap="round" />
</g>
</svg>