<?xml version="1.0" encoding="UTF-8" standalone="no" ?>
<!DOCTYPE svg PUBLIC "-//W3C//DTD SVG 1.1//EN" "http://www.w3.org/Graphics/SVG/1.1/DTD/svg11.dtd">
<svg xmlns="http://www.w3.org/2000/svg" xmlns:xlink="http://www.w3.org/1999/xlink" version="1.1" width="50" height="50" viewBox="0 0 50 50" xml:space="preserve">
<desc>Created with Fabric.js 5.3.0</desc>
<defs>
</defs>
<g transform="matrix(0.7715392791 0 0 0.7715392791 25 25)" id="icr1FJ2b3DOADdklP279K"  >
<path style="stroke: rgb(255,255,255); stroke-width: 2; stroke-dasharray: none; stroke-linecap: butt; stroke-dashoffset: 0; stroke-linejoin: miter; stroke-miterlimit: 4; fill: none; fill-rule: nonzero; opacity: 1;" vector-effect="non-scaling-stroke"  transform=" translate(0, 0)" d="M 0 -30.18605 C 16.6627 -30.18605 30.18605 -16.6627 30.18605 0 C 30.18605 16.6627 16.6627 30.18605 0 30.18605 C -16.6627 30.18605 -30.18605 16.6627 -30.18605 0 C -30.18605 -16.6627 -16.6627 -30.18605 0 -30.18605 z" stroke-linecap="round" />
</g>
<g transform="matrix(1 0 0 1 25 25)" id="eQj6EOkqO0ndLQ3j8BJuF"  >
<path style="stroke: rgb(255,255,255); stroke-width: 2; stroke-dasharray: none; stroke-linecap: butt; stroke-dashoffset: 0; stroke-linejoin: miter; stroke-miterlimit: 4; fill: rgb(255,255,255); fill-opacity: 0; fill-rule: nonzero; opacity: 1;" vector-effect="non-scaling-stroke"  transform=" translate(0, 0)" d="M 0 -23.48837 L 0 23.48837" stroke-linecap="round" />
</g>
<g transform="matrix(1 0 0 1 25.1395348837 25)" id="DEn9V12cA5CSDK4vUVxuD"  >
<path style="stroke: rgb(255,255,255); stroke-width: 2; stroke-dasharray: none; stroke-linecap: butt; stroke-dashoffset: 0; stroke-linejoin: miter; stroke-miterlimit: 4; fill: rgb(255,255,255); fill-opacity: 0; fill-rule: nonzero; opacity: 1;" vector-effect="non-scaling-stroke"  transform=" translate(0, 0)" d="M -23.39535 0 L 23.39535 0" stroke-linecap="round" />
</g>
<g transform="matrix(1 0 0 1 25.1395374419 14.511627907)" id="u6JMDRmt2HCbU4fxeGYqk"  >
<path style="stroke: rgb(255,255,255); stroke-width: 2; stroke-dasharray: none; stroke-linecap: butt; stroke-dashoffset: 0; stroke-linejoin: miter; stroke-miterlimit: 4; fill: rgb(255,255,255); fill-opacity: 0; fill-rule: nonzero; opacity: 1;" vector-effect="non-scaling-stroke"  transform=" translate(-0.000005, 0)" d="M -20.93023 0 L 20.930239999999998 0" stroke-linecap="round" />
</g>
<g transform="matrix(1 0 0 1 25.1395348837 35.488372093)" id="4h9psw2R2ej0U30qB7pTX"  >
<path style="stroke: rgb(255,255,255); stroke-width: 2; stroke-dasharray: none; stroke-linecap: butt; stroke-dashoffset: 0; stroke-linejoin: miter; stroke-miterlimit: 4; fill: rgb(255,255,255); fill-opacity: 0; fill-rule: nonzero; opacity: 1;" vector-effect="non-scaling-stroke"  transform=" translate(-0.000005, 0)" d="M -20.93023 0 L 20.930239999999998 0" stroke-linecap="round" />
</g>
<g transform="matrix(1 0 0 1 18.6524639409 24.9999976744)" id="KaKrJF9Lwm50zhhdKPty_"  >
<path style="stroke: rgb(255,255,255); stroke-width: 2; stroke-dasharray: none; stroke-linecap: butt; stroke-dashoffset: 0; stroke-linejoin: miter; stroke-miterlimit: 4; fill: rgb(255,255,255); fill-opacity: 0; fill-rule: nonzero; opacity: 1;" vector-effect="non-scaling-stroke"  transform=" translate(-0.0000020633, 0)" d="M 6.42893 -23.5814 L 4.72468 -22.33099 C -2.41209 -17.09477 -6.610399999999999 -8.75808 -6.56815 0.09346000000000032 C -6.5259 8.945 -2.2481999999999998 17.241220000000002 4.9382399999999995 22.40908 L 6.56847 23.5814" stroke-linecap="round" />
</g>
<g transform="matrix(-1 0 0 1 31.3475360591 25.0000023256)" id="cfdvsqy6AD6iRUvw8YqpO"  >
<path style="stroke: rgb(255,255,255); stroke-width: 2; stroke-dasharray: none; stroke-linecap: butt; stroke-dashoffset: 0; stroke-linejoin: miter; stroke-miterlimit: 4; fill: rgb(255,255,255); fill-opacity: 0; fill-rule: nonzero; opacity: 1;" vector-effect="non-scaling-stroke"  transform=" translate(-0.0000020633, 0)" d="M 6.42893 -23.5814 L 4.72468 -22.33099 C -2.41209 -17.09477 -6.610399999999999 -8.75808 -6.56815 0.09346000000000032 C -6.5259 8.945 -2.2481999999999998 17.241220000000002 4.9382399999999995 22.40908 L 6.56847 23.5814" stroke-linecap="round" />
</g>
</svg>