<?xml version="1.0" encoding="UTF-8" standalone="no" ?>
<!DOCTYPE svg PUBLIC "-//W3C//DTD SVG 1.1//EN" "http://www.w3.org/Graphics/SVG/1.1/DTD/svg11.dtd">
<svg xmlns="http://www.w3.org/2000/svg" xmlns:xlink="http://www.w3.org/1999/xlink" version="1.1" width="50" height="50" viewBox="0 0 50 50" xml:space="preserve">
<desc>Created with Fabric.js 5.3.0</desc>
<defs>
</defs>
<g transform="matrix(5.3805382545 0 0 17.1215155565 25 11.744344222)" id="PRoTr6RrNZQysD6zg-Qfg"  >
<path style="stroke: rgb(160,95,47); stroke-width: 0; stroke-dasharray: none; stroke-linecap: butt; stroke-dashoffset: 0; stroke-linejoin: miter; stroke-miterlimit: 4; fill: rgb(255,255,255); fill-rule: nonzero; opacity: 1;"  transform=" translate(0, 0)" d="M -3.45466 0.24966 C -2.99439 -0.22896 -1.59105 -0.55638 0 -0.55638 C 1.59104 -0.55638 2.99438 -0.22895 3.45466 0.24966 L 3.7496400000000003 0.5563899999999999 L 2.2961400000000003 0.5563899999999999 L 2.2337900000000004 0.48113999999999996 L 2.2337900000000004 0.48113999999999996 C 1.9679700000000004 0.16030999999999995 1.0467300000000004 -0.06374000000000007 -0.008219999999999672 -0.06414000000000003 C -1.0631699999999997 -0.06454000000000003 -1.9861199999999997 0.15881999999999996 -2.2543999999999995 0.4794399999999999 L -2.2961199999999997 0.5292999999999999 L -3.7496199999999997 0.5563899999999998 z" stroke-linecap="round" />
</g>
<g transform="matrix(0.146379729 0 0 0.085029823 24.9999992681 35.1608217556)" id="jTxR5E_7nUIe3IZ4ocbZW"  >
<path style="stroke: rgb(100,100,215); stroke-width: 0; stroke-dasharray: none; stroke-linecap: butt; stroke-dashoffset: 0; stroke-linejoin: miter; stroke-miterlimit: 4; fill: rgb(255,255,255); fill-rule: nonzero; opacity: 1;" vector-effect="non-scaling-stroke"  transform=" translate(0.000005, 0)" d="M -168.81188 -99.36432 C -168.81188 -137.71915 -150.75057 -168.81188 -128.47082 -168.81188 L 128.47080999999997 -168.81188 L 128.47080999999997 -168.81188 C 150.75055999999998 -168.81188 168.81186999999997 -137.71915 168.81186999999997 -99.36432 L 168.81186999999997 99.36432 L 168.81186999999997 99.36432 C 168.81186999999997 137.71915 150.75055999999998 168.81188 128.47080999999997 168.81188 L -128.47082 168.81188 L -128.47082 168.81188 C -150.75057 168.81188 -168.81188 137.71915 -168.81188 99.36432 z" stroke-linecap="round" />
</g>
</svg>