<?xml version="1.0" encoding="UTF-8" standalone="no" ?>
<!DOCTYPE svg PUBLIC "-//W3C//DTD SVG 1.1//EN" "http://www.w3.org/Graphics/SVG/1.1/DTD/svg11.dtd">
<svg xmlns="http://www.w3.org/2000/svg" xmlns:xlink="http://www.w3.org/1999/xlink" version="1.1" width="50" height="50" viewBox="0 0 50 50" xml:space="preserve">
<desc>Created with Fabric.js 5.3.0</desc>
<defs>
</defs>
<g transform="matrix(0.346936042 0 0 0.346936042 25 20.6601854141)" id="DnYllPtlhwHeTFr_59O3A"  >
<path style="stroke: rgb(100,100,215); stroke-width: 6; stroke-dasharray: none; stroke-linecap: butt; stroke-dashoffset: 0; stroke-linejoin: miter; stroke-miterlimit: 4; fill: none; fill-rule: nonzero; opacity: 1;" vector-effect="non-scaling-stroke"  transform=" translate(0, 0)" d="M 0 -49.50495 C 27.32673 -49.50495 49.50495 -27.32673 49.50495 0 C 49.50495 27.32673 27.32673 49.50495 0 49.50495 C -27.32673 49.50495 -49.50495 27.32673 -49.50495 0 C -49.50495 -27.32673 -27.32673 -49.50495 0 -49.50495 z" stroke-linecap="round" />
</g>
<g transform="matrix(0.146379729 0 0 0.085029823 24.9999992681 35.1608217556)" id="caDP2JMIpEsyHLN1NYlLB"  >
<path style="stroke: rgb(100,100,215); stroke-width: 0; stroke-dasharray: none; stroke-linecap: butt; stroke-dashoffset: 0; stroke-linejoin: miter; stroke-miterlimit: 4; fill: rgb(100,100,215); fill-rule: nonzero; opacity: 1;" vector-effect="non-scaling-stroke"  transform=" translate(0.000005, 0)" d="M -168.81188 -99.36432 C -168.81188 -137.71915 -150.75057 -168.81188 -128.47082 -168.81188 L 128.47080999999997 -168.81188 L 128.47080999999997 -168.81188 C 150.75055999999998 -168.81188 168.81186999999997 -137.71915 168.81186999999997 -99.36432 L 168.81186999999997 99.36432 L 168.81186999999997 99.36432 C 168.81186999999997 137.71915 150.75055999999998 168.81188 128.47080999999997 168.81188 L -128.47082 168.81188 L -128.47082 168.81188 C -150.75057 168.81188 -168.81188 137.71915 -168.81188 99.36432 z" stroke-linecap="round" />
</g>
</svg>