<?xml version="1.0" encoding="UTF-8" standalone="no" ?>
<!DOCTYPE svg PUBLIC "-//W3C//DTD SVG 1.1//EN" "http://www.w3.org/Graphics/SVG/1.1/DTD/svg11.dtd">
<svg xmlns="http://www.w3.org/2000/svg" xmlns:xlink="http://www.w3.org/1999/xlink" version="1.1" width="50" height="50" viewBox="0 0 50 50" xml:space="preserve">
<desc>Created with Fabric.js 5.3.0</desc>
<defs>
</defs>
<g transform="matrix(1.17001829 0 0 0.9689214338 24.9999941499 25)" id="dmoPKBaZurIEo2iwrvabs"  >
<path style="stroke: rgb(255,255,255); stroke-width: 0; stroke-dasharray: none; stroke-linecap: butt; stroke-dashoffset: 0; stroke-linejoin: miter; stroke-miterlimit: 4; fill: rgb(255,255,255); fill-rule: nonzero; opacity: 1;" vector-effect="non-scaling-stroke"  transform=" translate(0, 0)" d="M -21.20154 -15.19821 C -21.20154 -20.32539 -17.759520000000002 -24.48179 -13.513580000000001 -24.48179 L -2.4380100000000002 -24.48179 L 7.511839999999999 -24.48179 L 1.6204199999999993 -18.88138 L -1.8854200000000008 -18.88138 L -1.0580000000000007 2.81334 L 0.8204499999999992 2.81334 L 1.6204199999999993 -18.88138 L 4.795389999999999 -24.48179 L 13.513589999999999 -24.48179 L 13.513589999999999 -24.48179 C 17.759529999999998 -24.48179 21.201549999999997 -20.32539 21.201549999999997 -15.19821 L 21.201549999999997 8.637730000000001 L 21.201549999999997 8.637730000000001 C 21.201549999999997 13.76491 17.759529999999998 17.921310000000002 13.513589999999997 17.921310000000002 L 2.852039999999997 17.921310000000002 L -3.5887800000000034 11.618810000000002 L -0.23994000000000337 11.618810000000002 L -0.23994000000000337 11.618810000000002 C 0.8810199999999966 11.618810000000002 1.7897299999999965 10.521490000000002 1.7897299999999965 9.167880000000002 L 1.7897299999999965 8.709100000000001 L 1.7897299999999965 8.709100000000001 C 1.7897299999999965 7.446620000000001 0.9421899999999965 6.423180000000001 -0.10329000000000343 6.423180000000001 L -0.10329000000000343 6.423180000000001 L -0.10329000000000343 6.423180000000001 C -1.1810400000000034 6.423180000000001 -2.054720000000003 7.478200000000001 -2.054720000000003 8.779630000000001 L -2.054720000000003 9.178930000000001 L -2.054720000000003 9.178930000000001 C -2.054720000000003 10.526440000000001 -1.1501000000000032 11.618810000000002 -0.03420000000000334 11.618810000000002 L 3.4040499999999967 11.618810000000002 L 5.237549999999997 17.921310000000002 L -1.1499900000000034 17.921310000000002 L -14.046010000000003 17.921310000000002 L -21.20153 24.481790000000004 z" stroke-linecap="round" />
</g>
</svg>