<?xml version="1.0" encoding="UTF-8" standalone="no" ?>
<!DOCTYPE svg PUBLIC "-//W3C//DTD SVG 1.1//EN" "http://www.w3.org/Graphics/SVG/1.1/DTD/svg11.dtd">
<svg xmlns="http://www.w3.org/2000/svg" xmlns:xlink="http://www.w3.org/1999/xlink" version="1.1" width="50" height="50" viewBox="0 0 50 50" xml:space="preserve">
<desc>Created with Fabric.js 5.3.0</desc>
<defs>
</defs>
<g transform="matrix(-0.0891783203 -0.0891783203 0.0891783203 -0.0891783203 66.6425074284 19.3394047163)" id="qWEFQr_q1hG9itGRPOBDG"  >
<path style="stroke: none; stroke-width: 1; stroke-dasharray: none; stroke-linecap: butt; stroke-dashoffset: 0; stroke-linejoin: miter; stroke-miterlimit: 4; fill: rgb(179,181,179); fill-rule: nonzero; opacity: 1;"  transform=" translate(-40, -40)" d="M 0 30.56 L 40 0 L 80 30.56 L 64.72 80 L 15.28 80 L 0 30.56 z" stroke-linecap="round" />
</g>
<g transform="matrix(1.0717124277 0 0 1.0404624277 14.4118847948 25)" id="aX-wMcWqtRP4cK7o_2e0M"  >
<path style="stroke: rgb(0,0,0); stroke-width: 0; stroke-dasharray: none; stroke-linecap: butt; stroke-dashoffset: 0; stroke-linejoin: miter; stroke-miterlimit: 4; fill: rgb(255,255,255); fill-rule: nonzero; opacity: 1;"  transform=" translate(0, 0)" d="M 8.57626 -22.0091 C 8.6694 -22.23067 8.90078 -22.35443 9.13032 -22.30544 C 9.35985 -22.25645 9.52445 -22.04819 9.52445 -21.80674 L 9.52445 15.116939999999996 L 9.52445 15.116939999999996 C 9.52445 16.002459999999996 8.964739999999999 16.784819999999996 8.14362 17.047089999999997 L -8.20546 22.269 L -8.20546 22.269 C -8.58514 22.390269999999997 -8.99862 22.272699999999997 -9.264140000000001 21.967979999999997 C -9.529660000000002 21.663249999999998 -9.598590000000002 21.227169999999997 -9.440640000000002 20.851419999999997 z" stroke-linecap="round" />
</g>
<g transform="matrix(-1.0717124277 0 0 1.0404624277 35.5881143468 24.9999945332)" id="ia-PQ9lmRzLmXc-javePP"  >
<path style="stroke: rgb(0,0,0); stroke-width: 0; stroke-dasharray: none; stroke-linecap: butt; stroke-dashoffset: 0; stroke-linejoin: miter; stroke-miterlimit: 4; fill: rgb(255,255,255); fill-rule: nonzero; opacity: 1;"  transform=" translate(-0.0000070745, 0.0000102501)" d="M 8.57626 -22.0091 C 8.6694 -22.23067 8.90078 -22.35443 9.13032 -22.30544 C 9.35985 -22.25645 9.52445 -22.04819 9.52445 -21.80674 L 9.52445 15.116939999999996 L 9.52445 15.116939999999996 C 9.52445 16.002459999999996 8.964739999999999 16.784819999999996 8.14362 17.047089999999997 L -8.20546 22.269 L -8.20546 22.269 C -8.58514 22.390269999999997 -8.99862 22.272699999999997 -9.264140000000001 21.967979999999997 C -9.529660000000002 21.663249999999998 -9.598590000000002 21.227169999999997 -9.440640000000002 20.851419999999997 z" stroke-linecap="round" />
</g>
</svg>