<?xml version="1.0" encoding="UTF-8" standalone="no" ?>
<!DOCTYPE svg PUBLIC "-//W3C//DTD SVG 1.1//EN" "http://www.w3.org/Graphics/SVG/1.1/DTD/svg11.dtd">
<svg xmlns="http://www.w3.org/2000/svg" xmlns:xlink="http://www.w3.org/1999/xlink" version="1.1" width="50" height="50" viewBox="0 0 50 50" xml:space="preserve">
<desc>Created with Fabric.js 5.3.0</desc>
<defs>
</defs>
<g transform="matrix(5.7614466094 5.7614466094 -0.7071067812 0.7071067812 24.72341132 25.0418652904)" id="oJHTAvFE_XH1nKVCGkTJb"  >
<path style="stroke: rgb(62,224,105); stroke-width: 0; stroke-dasharray: none; stroke-linecap: butt; stroke-dashoffset: 0; stroke-linejoin: miter; stroke-miterlimit: 4; fill: rgb(255,100,100); fill-rule: nonzero; opacity: 1;" vector-effect="non-scaling-stroke"  transform=" translate(0, 0)" d="M -3.861 -0.04037 C -3.861 -2.1504499999999998 -3.65106 -3.8609999999999998 -3.39209 -3.8609999999999998 L 3.3920999999999997 -3.8609999999999998 L 3.3920999999999997 -3.8609999999999998 C 3.65107 -3.8609999999999998 3.86101 -2.1504499999999998 3.86101 -0.040369999999999795 L 3.86101 0.04038000000000021 L 3.86101 0.04038000000000021 C 3.86101 2.1504600000000003 3.65107 3.8610100000000003 3.3920999999999997 3.8610100000000003 L -3.39209 3.8610100000000003 L -3.39209 3.8610100000000003 C -3.65106 3.8610100000000003 -3.861 2.1504600000000003 -3.861 0.040380000000000305 z" stroke-linecap="round" />
</g>
<g transform="matrix(-5.7614466094 5.7614466094 -0.7071067812 -0.7071067812 25.2765813124 25.041872658)" id="GCRJ1MRYRHCt_UiVCgDsp"  >
<path style="stroke: rgb(62,224,105); stroke-width: 0; stroke-dasharray: none; stroke-linecap: butt; stroke-dashoffset: 0; stroke-linejoin: miter; stroke-miterlimit: 4; fill: rgb(255,100,100); fill-rule: nonzero; opacity: 1;" vector-effect="non-scaling-stroke"  transform=" translate(-0.000005, -0.000005)" d="M -3.861 -0.04037 C -3.861 -2.1504499999999998 -3.65106 -3.8609999999999998 -3.39209 -3.8609999999999998 L 3.3920999999999997 -3.8609999999999998 L 3.3920999999999997 -3.8609999999999998 C 3.65107 -3.8609999999999998 3.86101 -2.1504499999999998 3.86101 -0.040369999999999795 L 3.86101 0.04038000000000021 L 3.86101 0.04038000000000021 C 3.86101 2.1504600000000003 3.65107 3.8610100000000003 3.3920999999999997 3.8610100000000003 L -3.39209 3.8610100000000003 L -3.39209 3.8610100000000003 C -3.65106 3.8610100000000003 -3.861 2.1504600000000003 -3.861 0.040380000000000305 z" stroke-linecap="round" />
</g>
</svg>